<svg width="36" height="60" viewBox="0 0 36 60" fill="none" xmlns="http://www.w3.org/2000/svg">
<g clip-path="url(#clip0_9_2443)">
<path d="M28.9641 0H6.63761C2.99698 0 0 2.89641 0 6.53704V53.463C0 57.1036 2.99698 60 6.6175 60H28.944C32.5846 60 35.4811 57.1036 35.4811 53.463V48.7362V47.3684V10.3587V9.99665V6.53704C35.5012 2.89641 32.5846 0 28.9641 0Z" fill="#1C252C"/>
<path d="M31.7801 10.3587V47.3885V47.469H3.82166V7.36169H31.7801V9.97651V10.3587Z" fill="#FEFEFE"/>
<path d="M17.8009 56.7415C16.0711 56.7415 14.8039 55.3738 14.8039 53.7445C14.8039 52.1153 16.0711 50.7476 17.8009 50.7476C19.4301 50.7476 20.7979 52.1153 20.7979 53.7445C20.7979 55.3738 19.4301 56.7415 17.8009 56.7415Z" fill="#FCD802"/>
<path d="M27.5562 17.5998C21.7834 17.5998 19.2089 13.3557 18.3842 11.5455C18.2635 11.3041 18.0221 11.1432 17.7606 11.1432C17.4992 11.1432 17.2377 11.3041 17.1371 11.5455C16.2923 13.3758 13.7379 17.5998 7.96514 17.5998C7.58297 17.5998 7.28127 17.9015 7.28127 18.2837V24.8609C7.28127 27.5763 7.28127 33.2283 12.8126 36.7885C15.9303 38.7999 17.0969 39.8056 17.0969 40.5096C17.0969 40.8918 17.3986 41.1935 17.7808 41.1935C18.1629 41.1935 18.4646 40.8918 18.4646 40.5096C18.4646 39.8056 19.6312 38.7999 22.7489 36.7885C28.2803 33.2283 28.2803 27.5763 28.2803 24.8609V18.3038C28.2601 17.9216 27.9383 17.5998 27.5562 17.5998ZM26.8723 24.881C26.8723 27.5361 26.8723 32.4841 21.9645 35.642C19.7318 37.0701 18.4445 38.0356 17.7405 38.8603C17.0365 38.0356 15.7492 37.0902 13.5166 35.642C8.60879 32.4841 8.60879 27.5361 8.60879 24.881V18.9876C10.9621 18.867 13.0741 18.0825 14.8642 16.6343C16.1716 15.5884 17.0969 14.3815 17.7204 13.3356C18.344 14.3815 19.2692 15.5884 20.5766 16.6343C22.3668 18.0624 24.4787 18.8468 26.8321 18.9876V24.881H26.8723Z" fill="#1C252C"/>
<path d="M17.7405 16.7751C16.1918 18.4647 13.9189 20.1744 10.7006 20.7979V24.861C10.7006 26.3695 10.7409 27.9585 11.2638 29.5475C11.8471 31.3578 12.9534 32.7859 14.643 33.872C15.8297 34.6364 16.8756 35.3403 17.7405 36.0041C18.6054 35.3202 19.6312 34.6364 20.8381 33.872C22.5277 32.7859 23.6339 31.3779 24.2172 29.5475C24.7402 27.9585 24.7804 26.3494 24.7804 24.861V20.7979C21.5823 20.1744 19.2893 18.4848 17.7405 16.7751Z" fill="#1C252C"/>
<path d="M20.637 29.2055C20.1341 29.6883 19.41 29.99 18.4848 30.1107V31.4985H17.2377V30.1308C16.6142 30.0905 16.0309 29.99 15.4878 29.8089C14.9246 29.6279 14.4821 29.4067 14.1401 29.1452L14.824 27.6165C15.1458 27.8579 15.5079 28.0389 15.9303 28.1998C16.3527 28.3607 16.7952 28.4613 17.2377 28.5015V26.4097C16.6544 26.2689 16.1515 26.108 15.7493 25.9269C15.347 25.7459 15.005 25.5046 14.7234 25.1626C14.4418 24.8207 14.3212 24.3782 14.3212 23.815C14.3212 23.1311 14.5826 22.5277 15.0855 22.0449C15.5883 21.5421 16.3124 21.2404 17.2578 21.1398V19.752H18.5049V21.1197C19.5307 21.2002 20.3755 21.4616 21.0392 21.884L20.4157 23.4127C19.7922 23.0506 19.1485 22.8294 18.5049 22.7691V24.881C19.0882 25.0218 19.5709 25.1626 19.9933 25.3436C20.3956 25.5046 20.7375 25.766 21.0191 26.108C21.3007 26.4499 21.4214 26.8924 21.4214 27.4355C21.3812 28.1194 21.1197 28.7027 20.637 29.2055ZM16.5337 24.2575C16.6946 24.3983 16.9159 24.4989 17.2176 24.5994V22.8294C16.8958 22.9098 16.6745 23.0305 16.5136 23.1914C16.3527 23.3524 16.2923 23.5334 16.2923 23.7345C16.2923 23.9558 16.3728 24.1167 16.5337 24.2575ZM19.1485 28.1395C19.2893 27.9987 19.3698 27.8177 19.3698 27.5964C19.3698 27.3953 19.2893 27.2142 19.1485 27.0936C18.9876 26.9528 18.7664 26.8522 18.4848 26.7516V28.4814C18.7664 28.3809 18.9876 28.2803 19.1485 28.1395Z" fill="white"/>
</g>
<defs>
<clipPath id="clip0_9_2443">
<rect width="35.5012" height="60" fill="white"/>
</clipPath>
</defs>
</svg>
