<svg width="77" height="50" viewBox="0 0 77 50" fill="none" xmlns="http://www.w3.org/2000/svg">
<path d="M76.5461 0H14.3082V36.2159H76.5461V0Z" fill="#409936"/>
<path d="M73.0608 3.45912V32.7568H17.7673V3.45912H73.0608ZM76.5461 0H14.3082V36.2159H76.5461V0Z" fill="#167F1D"/>
<path d="M55.6342 18.4486C55.6342 24.2924 50.891 29.0094 45.0734 29.0094C39.2296 29.0094 34.5126 24.2662 34.5126 18.4486C34.5126 12.6048 39.2558 7.88782 45.0734 7.88782C50.9172 7.88782 55.6342 12.631 55.6342 18.4486Z" fill="#167F1D"/>
<path d="M69.13 6.94446H6.89203V43.1604H69.13V6.94446Z" fill="#409936"/>
<path d="M65.6446 10.4036V39.7013H10.3511V10.4036H65.6446ZM69.13 6.94446H6.89203V43.1604H69.13V6.94446Z" fill="#167F1D"/>
<path d="M48.218 25.3931C48.218 31.2369 43.4748 35.9539 37.6572 35.9539C31.8134 35.9539 27.0964 31.2107 27.0964 25.3931C27.0964 19.5493 31.8396 14.8323 37.6572 14.8323C43.501 14.8323 48.218 19.5493 48.218 25.3931Z" fill="#167F1D"/>
<path d="M62.2379 13.7841H0V50H62.2379V13.7841Z" fill="#409936"/>
<path d="M58.7788 17.2432V46.5409H3.45912V17.2432H58.7788ZM62.2379 13.7841H0V50H62.2379V13.7841Z" fill="#167F1D"/>
<path d="M41.326 32.2327C41.326 38.0765 36.5828 42.7935 30.7652 42.7935C24.9214 42.7935 20.2044 38.0503 20.2044 32.2327C20.2044 26.3889 24.9476 21.6719 30.7652 21.6719C36.609 21.6719 41.326 26.3889 41.326 32.2327Z" fill="#167F1D"/>
<path d="M34.2505 37.3166C33.5954 37.9455 32.652 38.3386 31.4465 38.4958V40.304H29.8218V38.522C29.0094 38.4696 28.2494 38.3386 27.5419 38.1027C26.8081 37.8669 26.2316 37.5786 25.7861 37.2379L26.6771 35.2463C27.0964 35.5608 27.5681 35.7966 28.1184 36.0063C28.6687 36.2159 29.2453 36.347 29.8218 36.3994V33.674C29.0618 33.4906 28.4067 33.2809 27.8826 33.0451C27.3585 32.8092 26.913 32.4948 26.5461 32.0493C26.1792 31.6038 26.022 31.0273 26.022 30.2935C26.022 29.4025 26.3627 28.6164 27.0178 27.9874C27.6729 27.3323 28.6163 26.9392 29.848 26.8082V25H31.4727V26.782C32.8092 26.8868 33.9098 27.2275 34.7746 27.7778L33.9622 29.7694C33.1499 29.2977 32.3113 29.0094 31.4727 28.9308V31.7086C32.2327 31.892 32.8616 32.0755 33.4119 32.3113C33.936 32.521 34.3815 32.8616 34.7484 33.3071C35.1153 33.7526 35.2725 34.3291 35.2725 35.0367C35.2201 35.9277 34.8794 36.6876 34.2505 37.3166ZM28.9046 30.87C29.1142 31.0535 29.4025 31.1845 29.7956 31.3155V29.0094C29.3763 29.1143 29.088 29.2715 28.8784 29.4811C28.6949 29.6908 28.5901 29.9266 28.5901 30.2149C28.5901 30.4769 28.6949 30.6866 28.9046 30.87ZM32.3113 35.9277C32.4947 35.7442 32.5995 35.5084 32.5995 35.2201C32.5995 34.9581 32.4947 34.7222 32.3113 34.565C32.1016 34.3815 31.8134 34.2505 31.4465 34.1195V36.3732C31.8134 36.2683 32.1016 36.1111 32.3113 35.9277Z" fill="white"/>
</svg>
