<svg width="120" height="68" viewBox="0 0 120 68" fill="none" xmlns="http://www.w3.org/2000/svg">
<path d="M111.649 18.8876C106.969 14.2078 100.881 11.3733 94.4325 10.7075L99.1123 6.0087C100.862 4.25854 100.996 1.86159 99.3976 0.663109C97.7996 -0.535369 95.0603 -0.0597823 93.3101 1.69038L88.5923 6.4082C86.8421 8.15835 83.9125 10.5553 82.1053 11.7538C81.4204 12.1913 81.0019 12.743 80.8307 13.3327C80.5454 14.3029 80.9639 15.3492 82.1053 16.0911C83.9315 17.2896 86.8421 19.6866 88.5923 21.4367L93.3101 26.1546C94.6798 27.5242 96.6392 28.0949 98.1991 27.7145C98.6367 27.6003 99.0362 27.4291 99.3786 27.1628C100.9 26.0214 100.843 23.7576 99.3025 22.0455C99.2264 21.9694 99.1693 21.8933 99.0932 21.8172L94.851 17.575C99.3596 18.2788 103.545 20.3714 106.855 23.6625C110.964 27.7715 113.247 33.2503 113.247 39.0715C113.247 44.8927 110.983 50.3524 106.874 54.4805C106.493 54.861 106.113 55.2034 105.713 55.5458C97.1719 62.9459 84.1979 62.5845 76.0748 54.4805C67.5904 45.996 67.5904 32.166 76.0748 23.6625L71.3 18.8876C70.539 19.6485 69.8351 20.4475 69.1693 21.2655C65.1364 26.3067 62.9296 32.5084 62.9296 39.0715C62.9296 46.6999 65.8973 53.8527 71.2809 59.2554C76.6646 64.639 83.8364 67.6257 91.4648 67.6257C98.5606 67.6257 105.257 65.0575 110.488 60.3587C110.888 59.9973 111.268 59.6358 111.649 59.2744C117.032 53.8908 120 46.7189 120 39.0905C120 31.4431 117.032 24.2712 111.649 18.8876Z" fill="#1C252C"/>
<path d="M26.6328 23.6055C17.045 23.6055 9.2644 31.3861 9.2644 40.9739C9.2644 50.5617 17.045 58.3423 26.6328 58.3423C36.2206 58.3423 44.0012 50.5617 44.0012 40.9739C44.0012 31.3861 36.2206 23.6055 26.6328 23.6055ZM33.4432 51.4368L26.6328 47.8604L19.8224 51.4368L21.116 43.8655L15.6182 38.5008L23.2276 37.3975L26.6328 30.511L30.038 37.3975L37.6474 38.5008L32.1496 43.8655L33.4432 51.4368Z" fill="#1C252C"/>
<path d="M26.6328 67.6068C11.9467 67.6068 0 55.66 0 40.9739C0 26.2878 11.9467 14.3411 26.6328 14.3411C41.319 14.3411 53.2657 26.2878 53.2657 40.9739C53.2657 55.66 41.319 67.6068 26.6328 67.6068ZM26.6328 20.5808C15.39 20.5808 6.2397 29.731 6.2397 40.9739C6.2397 52.2168 15.39 61.348 26.6328 61.348C37.8757 61.348 47.026 52.1978 47.026 40.9549C47.026 29.712 37.8757 20.5808 26.6328 20.5808Z" fill="#1C252C"/>
</svg>
