<svg width="120" height="103" viewBox="0 0 120 103" fill="none" xmlns="http://www.w3.org/2000/svg">
<path d="M75.2096 16.6304C67.104 16.6304 60.559 23.1987 60.559 31.281C60.559 34.9844 61.9565 38.3617 64.2158 40.9471L60.559 48.7965L71.4596 45.4425C72.6475 45.7686 73.9053 45.9549 75.2096 45.9549C83.3152 45.9549 89.8603 39.3866 89.8603 31.3043C89.8835 23.1987 83.3152 16.6304 75.2096 16.6304ZM76.6071 38.1055H73.9984V35.4968H76.6071V38.1055ZM79.6584 29.9068C79.3323 30.4192 78.6335 31.1179 77.5854 32.003C77.0264 32.4689 76.7003 32.8183 76.5606 33.0978C76.4208 33.3773 76.3742 33.8664 76.3742 34.5884H74.0217C74.0217 34.2391 74.0217 34.0527 74.0217 33.9596C74.0217 33.1909 74.1382 32.562 74.3944 32.0729C74.6506 31.5838 75.163 31.0248 75.9084 30.3959C76.677 29.7903 77.1196 29.3711 77.2593 29.1847C77.4922 28.8819 77.6087 28.5558 77.6087 28.1832C77.6087 27.6707 77.3991 27.2515 77.0031 26.8788C76.6071 26.5061 76.0481 26.3431 75.3727 26.3431C74.7205 26.3431 74.1615 26.5294 73.7189 26.9021C73.2764 27.2748 72.9736 27.8571 72.8106 28.6257L70.4115 28.3229C70.4814 27.2282 70.9472 26.2732 71.8323 25.5046C72.6941 24.736 73.8587 24.34 75.2795 24.34C76.7702 24.34 77.9581 24.736 78.8432 25.5046C79.7283 26.2965 80.1708 27.2049 80.1708 28.2297C80.1475 28.8586 79.9845 29.3943 79.6584 29.9068Z" fill="#1C252C"/>
<path d="M47.1196 16.4907C58.7655 -0.67547 82.1972 -5.17081 99.3634 6.47515C116.53 18.1211 121.025 41.5528 109.379 58.7189C106.84 62.4689 103.602 65.7531 99.8758 68.3618L111.009 78.3773C100.155 75.8851 84.9689 76.1879 73.4394 77.7717C81.1491 69.0605 89.8137 56.5994 93.7733 46.1879L95.823 60.2795C98.1988 58.4394 100.295 56.2267 101.972 53.7345C110.846 40.6444 107.422 22.7795 94.3323 13.882C81.2422 5.00776 63.3773 8.43167 54.4798 21.5217" fill="#1C252C"/>
<path d="M21.6615 49.239H21.8012L22.2904 50.194C27.6009 57.694 37.8028 57.7173 43.1599 50.2872L43.6724 49.239H43.8587C43.9286 49.1226 43.9984 49.0294 44.0683 48.9129C46.4441 44.7437 48.2609 40.3648 48.2609 36.7313C48.2609 26.0869 41.3199 17.4456 32.7717 17.4456C24.2236 17.4456 17.2826 26.0869 17.2826 36.7313C17.2826 40.3881 19.0994 44.7437 21.4752 48.9129C21.5217 49.0061 21.5916 49.1226 21.6615 49.239Z" fill="#1C252C"/>
<path d="M45.5823 53.8508H45.5357C43.6957 57.6008 40.2717 60.3726 36.1258 61.3974V73.7654H29.3012V61.3974C25.1786 60.3726 21.7314 57.5775 19.8913 53.8508H19.8447C8.89751 53.8508 0 62.7251 0 73.6956V80.4502C0 83.8741 2.77174 86.6459 6.19565 86.6459H59.2081C62.632 86.6459 65.4037 83.8741 65.4037 80.4502V73.6956C65.427 62.7251 56.5528 53.8508 45.5823 53.8508Z" fill="#1C252C"/>
<path d="M120 91.9797H0.0465851V102.088H120V91.9797Z" fill="#1C252C"/>
</svg>
