<svg width="104" height="50" viewBox="0 0 104 50" fill="none" xmlns="http://www.w3.org/2000/svg">
<path d="M51.8889 8.24438H0.177795V41.7777H51.8889V8.24438Z" fill="#FCD802"/>
<path d="M51.8889 14.1555H0V21.2222H51.8889V14.1555Z" fill="#1C252C"/>
<path d="M13.7555 32.2223C13.7555 34.8889 11.5778 37.0667 8.91109 37.0667C6.24443 37.0667 4.06665 34.8889 4.06665 32.2223C4.06665 29.5556 6.24443 27.3778 8.91109 27.3778C11.5778 27.3778 13.7555 29.5556 13.7555 32.2223Z" fill="#FF5537"/>
<path d="M20.0444 32.2223C20.0444 34.8889 17.8666 37.0667 15.2 37.0667C12.5333 37.0667 10.3555 34.8889 10.3555 32.2223C10.3555 29.5556 12.5333 27.3778 15.2 27.3778C17.8666 27.3778 20.0444 29.5556 20.0444 32.2223Z" fill="#23485F"/>
<path d="M47.1556 32.2222H33.4V36.5555H47.1556V32.2222Z" fill="white"/>
<path d="M47.1778 27.9111H23.2V29.8667H47.1778V27.9111Z" fill="#1C252C"/>
<path d="M103.133 24.3556C103.133 24 103.089 23.6667 102.978 23.3778C102.8 22.9556 102.467 22.6444 102.156 22.4889C101.844 22.3333 101.578 22.3333 101.444 22.3333C101.378 22.3333 101.333 22.3333 101.311 22.3333H101.244L101.178 22.3556C100.578 22.5111 100.067 22.5778 99.6445 22.5778C99.0222 22.5778 98.5556 22.4667 98.2 22.2889C97.8222 22.1111 97.5556 21.8889 97.3556 21.6889C97.1556 21.4667 97 21.2444 96.9111 21.0667C96.8667 20.9778 96.8445 20.9111 96.8222 20.8889C96.4667 18.9778 96.1111 17.5111 95.7556 16.3778C95.4222 15.2444 95.0889 14.4444 94.8 13.8667C94.5778 13.4 94.3556 13.0667 94.1111 12.8222C94.1334 12.7778 94.1556 12.7111 94.1778 12.6667C94.3334 12.2444 94.4222 11.7556 94.4222 11.2C94.4222 10.8444 94.3778 10.4889 94.2667 10.1111C94.2222 9.97778 94.2222 9.8 94.2222 9.62222C94.2222 9.24444 94.3111 8.82222 94.4 8.51111C94.4445 8.35556 94.4889 8.22222 94.5334 8.13333L94.5778 8.04445V8.02222L95.0222 7.04444L93.9556 6.84444C92.9111 6.64444 91.8667 6.57778 90.9111 6.57778C90.2889 6.57778 89.6889 6.6 89.2 6.64444C88.7111 6.68889 88.2889 6.73333 88 6.77778C86.6222 5.35556 85.1334 4.24444 83.6 3.35556C82.0667 2.46667 80.5111 1.8 78.9778 1.31111C77.4222 0.755556 75.8667 0.444444 74.4445 0.244444C73.0222 0.0666667 71.7111 0 70.6 0C69.4667 0 68.5334 0.0666667 67.8889 0.133333C67.2222 0.2 66.8667 0.266667 66.8445 0.266667C66.6667 0.288889 65.4 0.511111 63.6 1.06667C61.8 1.62222 59.4222 2.53333 57.0222 3.95556C55.7778 4.68889 54.5334 5.57778 53.3556 6.62222C52.1778 7.66667 51.0445 8.88889 50.0889 10.3111C49.1556 11.6889 48.3334 13.2444 47.7556 14.9778C47.1556 16.7333 46.7778 18.6667 46.6889 20.8222C46.5778 20.9333 46.4667 21.0889 46.3334 21.2667C46.1111 21.6 45.8889 22.0667 45.7778 22.6222C45.5778 22.6667 45.3556 22.7556 45.1111 22.8667C44.7556 23.0444 44.2222 23.3333 43.9334 23.7778C43.6445 24.2222 43.3334 24.8 43.3334 25.4444V25.4667C43.3334 25.6667 43.4667 25.8667 43.4889 26.0889L43.0445 25.5778L42.9111 27.3778C42.9111 27.4 42.9111 27.4667 42.9111 27.5778C42.9111 27.8444 42.9334 28.2889 43.2222 28.8222C43.3778 29.0667 43.5778 29.3333 43.9111 29.5333C44.2222 29.7333 44.6 29.8222 45.0222 29.8222C45.3778 29.8222 45.7778 29.8667 46.2 29.7111C46.3778 29.7333 46.6 29.8889 46.8667 29.8889H46.9334C47.0222 29.8889 47.1334 30.6222 47.2889 31.1333C47.4667 31.7778 47.6889 32.4667 47.9334 33.2444C48.1778 34.0222 48.4667 34.8222 48.7556 35.6C49.0667 36.4 49.3778 37.1333 49.7111 37.8222C50.0445 38.5111 50.4 39.1111 50.7778 39.5778C51.4 40.3556 51.7334 41.0667 51.9111 41.6667C52.0889 42.2667 52.2445 42.7333 52.2445 43.0222C52.2445 43.1111 52.3556 43.1778 52.3556 43.2222V43.2667L51.4667 47.2889L51.8667 47.5333C53.4667 48.6444 55.0667 48.9556 56.4889 48.9556H56.5334C59.0889 48.9556 60.8889 47.9111 60.9778 47.8667L61.2445 47.7333L61.3334 47.4444C61.3778 47.3333 61.5334 47.0222 61.7778 46.6889C62.1556 46.1778 62.6667 45.6 63.0667 45.1556C63.1778 45.0222 63.2889 44.9333 63.3778 44.8222C64.7556 45.4444 66.2222 45.8444 67.6667 46.1111C69.1111 46.3556 70.5556 46.4444 71.9111 46.4667C73.7111 46.4667 75.3778 46.2889 76.7334 46.0889C78.0889 45.8889 79.1556 45.6444 79.7778 45.4889C80.0889 45.9556 80.5334 46.7333 80.8889 47.3778C81.0667 47.7333 81.2445 48.0667 81.3778 48.3111C81.5111 48.5556 81.5778 48.6889 81.5778 48.6889L81.7334 49L82.0667 49.2222C83.5556 49.7111 84.8445 50 85.9556 50C86.9111 50 87.7111 49.7556 88.3556 49.5556C89.0222 49.3556 89.5111 49.1333 89.8889 48.9111L89.9778 48.9333H90C90.2222 48.9333 90.3111 48.7556 90.4667 48.6C90.6222 48.4444 90.5778 48.1333 90.5778 47.9111C90.5778 47.9111 90.5778 47.8444 90.5778 47.7778V47.7111V47.6667V47.6444V47.3556V45.5778L90.5334 45.7333C90.4445 45.1111 90.4 44.3778 90.2889 43.7111C90.1778 43.0444 90.1111 42.4444 90.0222 42.0222C92.8 40.1778 94.6667 38.5111 95.8667 37.1556C97.0667 35.8 97.6667 34.7778 97.9334 34.1778C99 33.9333 99.8889 33.4667 100.6 32.8667C101.2 32.3333 101.667 31.7333 102.022 31.0889C102.378 30.4444 102.622 29.7556 102.8 29.0889C102.978 28.4222 103.067 27.7556 103.133 27.1333C103.2 26.5111 103.2 25.9556 103.2 25.4889C103.156 24.9778 103.133 24.5333 103.133 24.3556ZM93.0667 25.1556C92.6889 25.1556 92.3778 24.0889 92.3778 22.7778C92.3778 21.4667 92.6889 20.4 93.0667 20.4C93.4445 20.4 93.7556 21.4667 93.7556 22.7778C93.7334 24.0889 93.4445 25.1556 93.0667 25.1556ZM63.1556 8.77778L62.1778 6.8C62.2889 6.75556 66.1778 5 71.7111 5C73.0889 5 74.5778 5.11111 76.1334 5.4C77.6889 5.66667 79.3111 6.13333 80.9556 6.8L80.0445 8.82222C77.0889 7.62222 74.2222 7.22222 71.7111 7.22222C67 7.17778 63.5111 8.62222 63.1556 8.77778ZM47.5556 27.7111C47.5334 27.6444 47.5111 27.6222 47.5111 27.6L47.6 27.6889C47.8222 27.9111 48.3778 28.5333 48.5111 29.1333L48.5334 29.2C48.6 29.6444 47.7778 28.1333 47.5556 27.7111Z" fill="#1C252C"/>
</svg>
