<svg width="78" height="50" viewBox="0 0 78 50" fill="none" xmlns="http://www.w3.org/2000/svg">
<g clip-path="url(#clip0_9_2454)">
<path d="M77.4082 0H0.292709V50H77.4082V0Z" fill="#FCD802"/>
<path d="M77.3816 8.78125H0V19.3454H77.3816V8.78125Z" fill="#1C252C"/>
<path d="M20.5162 35.737C20.5162 39.7285 17.2698 42.9749 13.2783 42.9749C9.28686 42.9749 6.04045 39.7285 6.04045 35.737C6.04045 31.7456 9.28686 28.4991 13.2783 28.4991C17.2698 28.5258 20.5162 31.7456 20.5162 35.737Z" fill="#FF5537"/>
<path d="M29.8829 35.737C29.8829 39.7285 26.6365 42.9749 22.645 42.9749C18.6535 42.9749 15.4071 39.7285 15.4071 35.737C15.4071 31.7456 18.6535 28.4991 22.645 28.4991C26.6631 28.5258 29.8829 31.7456 29.8829 35.737Z" fill="#23485F"/>
<path d="M70.3566 35.7637H49.8403V42.2033H70.3566V35.7637Z" fill="white"/>
<path d="M70.3566 29.3241H34.5929V32.2512H70.3566V29.3241Z" fill="#1C252C"/>
</g>
<defs>
<clipPath id="clip0_9_2454">
<rect width="77.3816" height="50" fill="white"/>
</clipPath>
</defs>
</svg>
