<svg width="150" height="75" viewBox="0 0 150 75" fill="none" xmlns="http://www.w3.org/2000/svg">
<path fill-rule="evenodd" clip-rule="evenodd" d="M65.2387 61.5532C65.2387 59.0729 64.4177 56.8371 62.9855 55.1079C61.5532 53.3787 59.5095 52.1735 57.0817 51.7368C56.4529 51.632 55.8066 51.5621 55.1603 51.5621C52.0163 51.5621 48.9596 52.8372 46.5491 54.8808C44.1562 56.9245 42.4095 59.7541 41.868 62.8981C41.7458 63.5968 41.6934 64.2605 41.6934 64.9068C41.6934 67.3871 42.5143 69.6229 43.9466 71.3521C45.3789 73.0813 47.4225 74.2865 49.8504 74.7232C50.4792 74.828 51.1255 74.8978 51.7717 74.8978C54.9158 74.8978 57.9725 73.6228 60.3829 71.5791C62.7759 69.5355 64.5225 66.7059 65.064 63.5619C65.1863 62.8806 65.2387 62.2169 65.2387 61.5532ZM55.6494 50.4093C62.8632 50.4093 67.6666 56.2607 66.409 63.492C66.3915 63.5619 66.3915 63.6143 66.374 63.6841H107.596C107.613 63.6143 107.613 63.5619 107.631 63.492C108.888 56.2607 115.753 50.4093 122.967 50.4093C130.163 50.4093 134.984 56.2607 133.726 63.492C133.709 63.5619 133.709 63.6143 133.691 63.6841H137.482C141.953 63.6841 146.267 60.0161 147.053 55.5271L149.586 41.0296C150.162 37.676 150.285 38.4795 148.975 35.7546C145.551 28.6282 140.835 15.6154 135.351 15.6154H104.679L98.8274 49.1342C98.6702 50.0425 97.8143 50.7587 96.9061 50.7587C96.0153 50.7587 95.4039 50.0251 95.5611 49.1342L103.054 6.28806C103.771 2.16589 101.482 0 97.2903 0H45.1867C40.82 0 36.628 3.49337 35.6848 7.82515H22.9864C21.9209 7.82515 21.0476 8.73342 21.0476 9.86877C21.0476 11.0041 21.9209 11.9124 22.9864 11.9124H52.6975C53.501 11.9124 54.1996 11.3884 54.4791 10.6548H55.7542C56.8197 10.6548 57.693 11.5631 57.693 12.6984C57.693 13.8337 56.8197 14.742 55.7542 14.742H34.4796L34.0778 17.0127H30.5146C29.4491 17.0127 28.5758 17.921 28.5758 19.0563C28.5758 20.1917 29.4491 21.1 30.5146 21.1H53.5184C54.3219 21.1 55.0206 20.5759 55.3 19.8423H59.9812C61.0466 19.8423 61.92 20.7506 61.92 21.886C61.92 23.0213 61.0466 23.9296 59.9812 23.9296H32.8726L32.6281 25.292H22.9514C21.886 25.292 21.0126 26.2003 21.0126 27.3356C21.0126 28.471 21.886 29.3792 22.9514 29.3792H41.3964C42.1999 29.3792 42.8986 28.8552 43.178 28.1216H43.5099C44.5754 28.1216 45.4487 29.0299 45.4487 30.1652C45.4487 31.3006 44.5754 32.2089 43.5099 32.2089H31.4403L31.0386 34.4796H17.5891C16.5236 34.4796 15.6503 35.3878 15.6503 36.5232C15.6503 37.6585 16.5236 38.5668 17.5891 38.5668H54.3044C55.1079 38.5668 55.8066 38.0428 56.086 37.3092H58.0074C59.0729 37.3092 59.9462 38.2175 59.9462 39.3528C59.9462 40.4882 59.0729 41.3964 58.0074 41.3964H29.8334L29.4666 43.5099H17.6764C16.611 43.5099 15.7376 44.4182 15.7376 45.5535C15.7376 46.6889 16.611 47.5972 17.6764 47.5972H39.6497C40.4532 47.5972 41.1519 47.0732 41.4314 46.3395H43.2828C44.3483 46.3395 45.2217 47.2478 45.2217 48.3832C45.2217 49.5185 44.3483 50.4268 43.2828 50.4268H28.2439L27.3531 55.5446C26.5671 60.0336 29.5888 63.7016 34.0778 63.7016H40.2786C40.296 63.6317 40.296 63.5793 40.3135 63.5095C41.5886 56.2607 48.453 50.4093 55.6494 50.4093ZM12.2617 47.5797C13.3272 47.5797 14.2005 46.6714 14.2005 45.5361C14.2005 44.4007 13.3272 43.4925 12.2617 43.4925H9.6417C8.57622 43.4925 7.70288 44.4007 7.70288 45.5361C7.70288 46.6714 8.57622 47.5797 9.6417 47.5797H12.2617ZM9.34476 11.9124H16.0171C17.0826 11.9124 17.9559 11.0041 17.9559 9.86877C17.9559 8.73342 17.0826 7.82515 16.0171 7.82515H9.34476C8.27929 7.82515 7.40594 8.73342 7.40594 9.86877C7.40594 10.9866 8.26182 11.9124 9.34476 11.9124ZM8.75089 38.5493H11.2836C12.3491 38.5493 13.2224 37.6411 13.2224 36.5057C13.2224 35.3704 12.3491 34.4621 11.2836 34.4621H8.75089C7.68541 34.4621 6.81207 35.3704 6.81207 36.5057C6.81207 37.6236 7.68541 38.5493 8.75089 38.5493ZM3.70297 47.5797C4.76845 47.5797 5.64179 46.6714 5.64179 45.5361C5.64179 44.4007 4.76845 43.4925 3.70297 43.4925H1.93882C0.873342 43.4925 0 44.4007 0 45.5361C0 46.6714 0.873342 47.5797 1.93882 47.5797H3.70297ZM106.775 38.1825L110.006 19.6677H132.556C134.931 23.0038 137.08 27.8247 138.949 31.9818C141.656 37.9904 141.219 38.2 134.495 38.2H106.775V38.1825ZM114.233 55.073C111.893 57.0817 110.163 59.8589 109.622 62.9505C109.5 63.6317 109.447 64.2955 109.447 64.9243C109.447 67.3696 110.251 69.5705 111.666 71.2647C113.08 72.9765 115.089 74.1642 117.465 74.5834C118.076 74.6882 118.722 74.7406 119.368 74.7406C122.46 74.7406 125.464 73.5005 127.822 71.4743C130.163 69.4657 131.892 66.6884 132.434 63.5968C132.556 62.9156 132.608 62.2518 132.608 61.623C132.608 59.1777 131.805 56.9769 130.39 55.2826C128.975 53.5708 126.967 52.3831 124.591 51.9639C123.98 51.8591 123.333 51.8067 122.687 51.8067C119.596 51.8241 116.591 53.0643 114.233 55.073ZM113.43 63.6143C113.814 61.4484 115.037 59.4571 116.731 58.0074C118.408 56.5751 120.539 55.6843 122.687 55.6843C123.124 55.6843 123.543 55.7192 123.927 55.7891C125.377 56.0336 126.582 56.7498 127.421 57.7629C128.259 58.7759 128.748 60.1209 128.748 61.6405C128.748 62.0772 128.713 62.5138 128.626 62.968C128.242 65.1339 127.019 67.1251 125.325 68.5748C123.648 70.0071 121.517 70.8979 119.368 70.8979C118.932 70.8979 118.513 70.863 118.128 70.7931C116.679 70.5486 115.473 69.8325 114.652 68.8194C113.814 67.8063 113.325 66.4613 113.325 64.9417C113.307 64.5051 113.342 64.0509 113.43 63.6143ZM60.0161 57.5882C60.872 58.6362 61.3785 60.0161 61.3785 61.5706C61.3785 62.0248 61.3436 62.4789 61.2562 62.933C60.872 65.1513 59.5969 67.195 57.8677 68.6622C56.1384 70.1294 53.9726 71.0377 51.7717 71.0377C51.3176 71.0377 50.8984 71.0027 50.4967 70.9329C49.012 70.6709 47.7718 69.9547 46.916 68.9067C46.0426 67.8587 45.5535 66.4788 45.5535 64.9243C45.5535 64.4701 45.5885 64.016 45.6758 63.5619C46.0601 61.3436 47.3352 59.2999 49.0644 57.8327C50.7936 56.3655 52.9595 55.4572 55.1603 55.4572C55.6144 55.4572 56.0336 55.4922 56.4354 55.562C57.9201 55.824 59.1602 56.5402 60.0161 57.5882Z" fill="black"/>
</svg>
