<svg width="30" height="30" viewBox="0 0 30 30" fill="none" xmlns="http://www.w3.org/2000/svg">
<circle cx="15" cy="15" r="14.5" fill="#FCD802" stroke="#1C252C"/>
<path d="M11.8812 7.05339C12.3243 7.21889 12.5005 7.59259 12.5966 8.00901C12.7888 8.84184 12.9703 9.68001 13.1465 10.5182C13.1732 10.6463 13.1785 10.7798 13.1838 10.9079C13.1892 11.3083 13.0023 11.5806 12.6233 11.7194C12.3564 11.8155 12.0948 11.9062 11.8225 11.9863C11.5609 12.0664 11.4167 12.2426 11.358 12.4988C11.2779 12.8352 11.2833 13.1662 11.4007 13.5025C12.0467 15.3924 13.1625 16.9566 14.668 18.2486C14.9723 18.5102 15.3193 18.7344 15.6663 18.9373C15.8852 19.0707 16.1522 19.0974 16.4137 19.0707C16.6006 19.0494 16.7554 18.9693 16.8622 18.8091C17.0117 18.5956 17.1612 18.382 17.3106 18.1632C17.6096 17.7254 17.962 17.6133 18.4585 17.8215C18.7254 17.9336 18.9763 18.0831 19.2326 18.2219C19.713 18.4835 20.1935 18.7504 20.6687 19.012C20.7915 19.0814 20.9089 19.1508 21.0264 19.2309C21.3467 19.4444 21.6029 19.7007 21.6403 20.1171C21.6243 20.2239 21.6083 20.3307 21.5923 20.4321C21.4855 20.6723 21.4001 20.9233 21.2719 21.1582C20.706 22.1778 19.8519 22.8025 18.688 22.968C18.4585 23 18.2182 22.9893 17.9833 23C17.8018 22.9733 17.6203 22.9466 17.4334 22.9199C17.2145 22.8505 16.9957 22.7918 16.7821 22.717C15.709 22.3327 14.8068 21.6813 13.9633 20.9339C12.9543 20.037 12.0787 19.0174 11.2673 17.9443C10.2743 16.631 9.37204 15.2536 8.72072 13.7321C8.36303 12.8886 8.09076 12.0184 8.02135 11.0948C8 10.8278 8.00534 10.5556 8 10.2833C8.02669 10.1018 8.05339 9.92025 8.08008 9.7334C8.0961 9.69069 8.11211 9.65332 8.12279 9.61061C8.48048 8.27594 9.36136 7.46446 10.68 7.11745C10.9683 7.04271 11.2673 7.03737 11.5662 7C11.673 7.02135 11.7744 7.03737 11.8812 7.05339Z" fill="#1C252C"/>
</svg>
