<svg width="23" height="20" viewBox="0 0 23 20" fill="none" xmlns="http://www.w3.org/2000/svg">
<path d="M22.4972 3.84355C22.4295 3.73825 22.3091 3.67807 22.1888 3.67807H4.42272L3.90372 2.47461C3.94133 2.31666 3.9639 2.15118 3.9639 1.98571C3.9639 0.887552 3.07634 0 1.98571 0C0.887552 0 0 0.887552 0 1.98571C0 3.03121 0.812335 3.88868 1.83528 3.9639L6.68672 15.2388C5.69387 15.5472 4.97932 16.4724 4.97932 17.563C4.97932 18.9094 6.06995 20 7.41632 20C8.76269 20 9.85333 18.9094 9.85333 17.563C9.85333 16.9086 9.59759 16.3144 9.17638 15.8782H17.5028C17.0816 16.3144 16.8259 16.9086 16.8259 17.563C16.8259 18.9094 17.924 20 19.2629 20C20.6093 20 21.6999 18.9094 21.6999 17.563C21.6999 16.5024 21.0154 15.5998 20.0677 15.2614V13.7571C20.0677 13.5464 19.8947 13.381 19.6916 13.381H19.0147L22.5498 4.18202C22.5874 4.07672 22.5724 3.94133 22.4972 3.84355ZM2.03836 3.21173C2.02332 3.21173 2.00075 3.21173 1.98571 3.21173C1.30876 3.21173 0.759684 2.66266 0.759684 1.97819C0.759684 1.30124 1.30876 0.752162 1.98571 0.752162C2.66266 0.752162 3.21173 1.30124 3.21173 1.97819C3.21173 2.62505 2.71531 3.15156 2.08349 3.20421C2.06845 3.21173 2.0534 3.21173 2.03836 3.21173ZM7.4088 19.2478C6.48364 19.2478 5.72396 18.4957 5.72396 17.563C5.72396 16.6378 6.47612 15.8782 7.4088 15.8782C8.34148 15.8782 9.09364 16.6303 9.09364 17.563C9.08612 18.4957 8.33396 19.2478 7.4088 19.2478ZM20.9402 17.563C20.9402 18.4882 20.188 19.2478 19.2554 19.2478C18.3302 19.2478 17.5705 18.4957 17.5705 17.563C17.5705 16.6378 18.3227 15.8782 19.2554 15.8782C20.1805 15.8782 20.9402 16.6378 20.9402 17.563ZM19.308 14.1407V15.126C19.293 15.126 19.2704 15.126 19.2554 15.126H7.45393L2.61 3.86612C2.93343 3.76081 3.21926 3.56525 3.4449 3.31704L5.85935 8.92817L5.86687 8.95073L8.00301 13.915C8.06318 14.0504 8.19857 14.1407 8.349 14.1407H19.308Z" fill="black"/>
</svg>
