<svg width="80" height="51" viewBox="0 0 80 51" fill="none" xmlns="http://www.w3.org/2000/svg">
<path d="M44.6142 14.9316H14.8341C13.2158 14.9316 11.8978 16.2496 11.8978 17.8679V23.3735V24.6248V40.8912V41.8255V47.6481C11.8978 49.2664 13.2158 50.5844 14.8341 50.5844H44.6142C46.2325 50.5844 47.5505 49.2664 47.5505 47.6481V41.8255V40.8912V24.6248V23.3735V17.8679C47.5505 16.2663 46.2158 14.9316 44.6142 14.9316ZM44.5141 24.9751V26.0095V31.5318V32.3159V37.1541C44.5141 38.4888 43.413 39.5899 42.0783 39.5899H17.3533C16.0186 39.5899 14.9175 38.4888 14.9175 37.1541V32.3159V31.5318V26.0095V24.9751V20.4038C14.9175 19.0692 16.0186 17.968 17.3533 17.968H42.0783C43.413 17.968 44.5141 19.0692 44.5141 20.4038V24.9751Z" fill="#1C252C"/>
<path d="M10.6799 40.8248V39.8905V36.2869L10.0125 36.437C8.69451 36.7207 7.39319 35.8865 7.10957 34.5685L6.07519 29.847L5.90836 29.0796L4.72383 23.6908L4.50694 22.6731L3.5393 18.2019C3.25567 16.9006 4.08985 15.5826 5.40785 15.299L29.5656 10.027C30.8836 9.74335 32.1849 10.5775 32.4686 11.8955L32.919 13.9309H36.0055L34.8877 8.77571C34.5373 7.19077 32.9691 6.18976 31.4008 6.54011L2.30471 12.8799C0.736459 13.2302 -0.281238 14.7985 0.0691168 16.3667L1.23697 21.7555L1.5039 22.9734L4.97408 38.8561L5.17428 39.7737L6.40887 45.4628C6.75922 47.0478 8.32747 48.0488 9.89573 47.7151L10.8133 47.5149C10.7299 47.248 10.6799 46.9477 10.6799 46.6474V40.8248Z" fill="#1C252C"/>
<path d="M36.2557 23.0397C32.4018 23.0397 30.7001 20.2202 30.1329 19.0023C30.0494 18.8355 29.8993 18.7354 29.7158 18.7354C29.5323 18.7354 29.3654 18.8355 29.2987 19.0023C28.7481 20.2202 27.0297 23.0397 23.1758 23.0397C22.9256 23.0397 22.7087 23.2399 22.7087 23.5068V27.8946C22.7087 29.6964 22.7087 33.4669 26.3957 35.8527C28.4812 37.1874 29.2486 37.8714 29.2486 38.3385C29.2486 38.5888 29.4488 38.8057 29.7158 38.8057C29.966 38.8057 30.1829 38.6055 30.1829 38.3385C30.1829 37.8714 30.9504 37.1874 33.0358 35.8527C36.7229 33.4669 36.7229 29.7131 36.7229 27.8946V23.5068C36.7229 23.2399 36.5227 23.0397 36.2557 23.0397ZM35.8053 27.8946C35.8053 29.6631 35.8053 32.9664 32.5353 35.0685C31.0505 36.0195 30.1829 36.6702 29.7158 37.204C29.2486 36.6535 28.3978 36.0195 26.8962 35.0685C23.6263 32.9664 23.6263 29.6631 23.6263 27.8946V23.9573C25.1945 23.8739 26.5959 23.34 27.7972 22.389C28.6647 21.6883 29.282 20.8875 29.6991 20.1868C30.1162 20.8875 30.7335 21.6883 31.601 22.389C32.8022 23.34 34.2036 23.8739 35.7719 23.9573V27.8946H35.8053Z" fill="#1C252C"/>
<path d="M29.7158 22.4893C28.6814 23.6237 27.1632 24.7582 25.0277 25.1753V27.8947C25.0277 28.8957 25.0611 29.9635 25.3947 31.0145C25.7952 32.2324 26.5292 33.1667 27.647 33.9008C28.4478 34.418 29.1319 34.8685 29.7158 35.3189C30.283 34.8685 30.9837 34.4013 31.7679 33.9008C32.8857 33.1834 33.6364 32.2324 34.0201 31.0145C34.3705 29.9468 34.3872 28.8957 34.3872 27.8947V25.1753C32.2684 24.7415 30.7502 23.6237 29.7158 22.4893Z" fill="#1C252C"/>
<path d="M74.5778 0H56.0591C53.0394 0 50.5702 2.40243 50.5702 5.42215V44.3449C50.5702 47.3646 53.056 49.767 56.0591 49.767H74.5778C77.5975 49.767 80 47.3646 80 44.3449V40.4242V39.2898V8.59203V8.29172V5.42215C80 2.40243 77.5975 0 74.5778 0Z" fill="#1C252C"/>
<path d="M76.9135 8.59181V39.3062V39.373H53.7234V6.10596H76.9135V8.27482V8.59181Z" fill="#FEFEFE"/>
<path d="M65.3184 47.0645C63.8836 47.0645 62.8326 45.93 62.8326 44.5786C62.8326 43.2273 63.8836 42.0928 65.3184 42.0928C66.6698 42.0928 67.8043 43.2273 67.8043 44.5786C67.8043 45.93 66.6865 47.0645 65.3184 47.0645Z" fill="#FCD802"/>
<path d="M65.2351 11.9119H65.2684H65.2851C65.502 11.9119 65.7189 11.9286 65.9358 11.9453C66.1527 11.9619 66.3529 12.012 66.5697 12.062C66.82 12.1121 67.0702 12.1955 67.3038 12.2789C67.5374 12.3623 67.7876 12.4791 68.0045 12.5959C68.2715 12.7461 68.5551 12.9129 68.8053 13.0964C69.0723 13.2799 69.3225 13.4968 69.5561 13.7137C69.6061 13.7638 69.6729 13.7971 69.7563 13.7971C69.8397 13.7971 69.9064 13.7638 69.9732 13.7137C70.0733 13.5969 70.0733 13.4134 69.9565 13.3133C69.6896 13.0797 69.4226 12.8462 69.139 12.646C68.8554 12.4458 68.5551 12.2622 68.2715 12.1121C68.0212 11.9786 67.7543 11.8618 67.504 11.7617C67.2371 11.6616 66.9701 11.5782 66.7032 11.5115C66.4696 11.4614 66.2361 11.4114 66.0025 11.3947C65.7689 11.3613 65.5354 11.3613 65.2851 11.3613C65.2684 11.3613 65.2684 11.3613 65.2517 11.3613H65.2184C65.0682 11.3613 64.9348 11.4948 64.9348 11.6449C64.9514 11.7951 65.0682 11.9119 65.2351 11.9119Z" fill="#1C252C"/>
<path d="M72.6258 22.7396C72.6258 21.5217 72.459 20.3372 72.1587 19.2027C71.8584 18.1182 71.4246 17.1006 70.8574 16.2163C70.6238 15.8326 70.3569 15.4822 70.0732 15.1486C69.7896 14.8149 69.4893 14.5146 69.1723 14.2477C68.9221 14.0308 68.6718 13.8473 68.4049 13.6804C68.1379 13.5136 67.871 13.3634 67.5874 13.23C67.4372 13.1632 67.2704 13.23 67.2037 13.3801C67.1369 13.5303 67.2037 13.6971 67.3538 13.7638C67.6041 13.8806 67.8543 14.0141 68.1046 14.1642C68.3381 14.3144 68.5884 14.4979 68.8053 14.6814C69.0889 14.9317 69.3725 15.2153 69.6395 15.5156C69.9064 15.8159 70.1567 16.1663 70.3735 16.5166C70.9074 17.3508 71.3245 18.3185 71.6081 19.3528C71.9084 20.4373 72.0586 21.5717 72.0586 22.7396V22.7563C72.0586 23.9575 71.9918 25.1587 71.8417 26.3432C71.7082 27.4944 71.4913 28.6456 71.2244 29.7467C71.191 29.8968 71.2745 30.047 71.4413 30.097C71.458 30.097 71.4913 30.097 71.508 30.097C71.6415 30.097 71.7583 30.0136 71.7916 29.8802C72.0586 28.7457 72.2755 27.5945 72.4089 26.41C72.5424 25.1921 72.6258 23.9742 72.6258 22.7396Z" fill="#1C252C"/>
<path d="M73.1264 18.8525C72.8094 17.6513 72.3423 16.5335 71.7416 15.5325C71.6582 15.399 71.4914 15.349 71.3579 15.4324C71.2245 15.5158 71.1744 15.6826 71.2578 15.8161C71.8251 16.7671 72.2755 17.8348 72.5758 18.986C72.8928 20.1872 73.0596 21.4385 73.0596 22.7231C73.0596 22.8732 73.1931 23.0067 73.3433 23.0067C73.4934 23.0067 73.6269 22.8732 73.6269 22.7231C73.6269 21.4051 73.46 20.0871 73.1264 18.8525Z" fill="#1C252C"/>
<path d="M70.6739 28.8292C70.5237 28.7958 70.3736 28.8959 70.3235 29.0461C70.2067 29.5299 70.0899 30.0137 69.9398 30.4809C69.8063 30.948 69.6562 31.4151 69.4893 31.8656C69.4393 32.0157 69.506 32.1826 69.6562 32.2326C69.6895 32.2493 69.7229 32.2493 69.7563 32.2493C69.8731 32.2493 69.9898 32.1826 70.0232 32.0658C70.19 31.5987 70.3402 31.1315 70.4903 30.6477C70.6405 30.1639 70.7573 29.6634 70.8741 29.1795C70.9241 29.0127 70.824 28.8626 70.6739 28.8292Z" fill="#1C252C"/>
<path d="M69.9899 28.4622C70.1901 27.5446 70.3402 26.6104 70.4403 25.6594C70.457 25.5092 70.3402 25.3591 70.1901 25.3424C70.0399 25.3257 69.8898 25.4425 69.8731 25.5927C69.773 26.5103 69.6228 27.4279 69.4226 28.3288C69.3225 28.7625 69.2224 29.213 69.0889 29.6301C68.9722 30.0639 68.8387 30.4809 68.6885 30.898C68.5718 31.2484 68.4383 31.6154 68.2881 31.9658C68.1547 32.3161 68.0045 32.6498 67.8544 32.9835C67.7876 33.1336 67.8544 33.3005 67.9878 33.3672C68.0212 33.3839 68.0713 33.4006 68.1046 33.4006C68.2047 33.4006 68.3215 33.3338 68.3716 33.2337C68.5217 32.9001 68.6885 32.533 68.822 32.1827C68.9722 31.8323 69.1056 31.4653 69.2224 31.0982C69.3726 30.6811 69.506 30.2474 69.6228 29.7969C69.773 29.3631 69.8898 28.9127 69.9899 28.4622Z" fill="#1C252C"/>
<path d="M71.4246 26.0431C71.5414 24.9587 71.6081 23.8576 71.6081 22.7398C71.6081 21.6387 71.458 20.5709 71.1577 19.5532C70.8741 18.5689 70.457 17.6847 69.9398 16.9005C69.7062 16.5669 69.4727 16.2499 69.2057 15.9663C69.1056 15.8495 68.9221 15.8495 68.8053 15.9496C68.6885 16.0497 68.6885 16.2332 68.7886 16.35C69.0389 16.6169 69.2558 16.9005 69.4727 17.2175C69.9732 17.9516 70.3569 18.7858 70.6238 19.7034C70.9074 20.671 71.0409 21.672 71.0409 22.7231C71.0409 23.8075 70.9742 24.892 70.8574 25.9597C70.8407 26.1099 70.9575 26.26 71.1076 26.2767C71.1243 26.2767 71.1243 26.2767 71.141 26.2767C71.2912 26.2934 71.4079 26.1766 71.4246 26.0431Z" fill="#1C252C"/>
<path d="M70.0399 22.7398C70.0399 22.7565 70.0399 22.7565 70.0399 22.7398C70.0399 22.7565 70.0399 22.7732 70.0399 22.7732V22.7899V22.8066V22.8233C70.0399 22.8233 70.0399 22.8233 70.0399 22.8399V22.8566C70.0399 22.8566 70.0399 22.8566 70.0399 22.8733V22.89C70.0399 22.89 70.0399 22.9067 70.0566 22.9067C70.1066 22.9901 70.19 23.0401 70.2901 23.0401C70.3736 23.0401 70.457 23.0068 70.507 22.94L70.5237 22.9234L70.5404 22.9067C70.5404 22.9067 70.5404 22.89 70.5571 22.89V22.8733C70.5571 22.8733 70.5571 22.8733 70.5571 22.8566V22.8399C70.5571 22.8399 70.5571 22.8399 70.5571 22.8233V22.8066V22.7899C70.5571 22.7899 70.5571 22.7899 70.5571 22.7732C70.5571 21.8056 70.4236 20.8546 70.14 19.9704C69.873 19.1028 69.4893 18.3354 68.9888 17.668C68.7719 17.3844 68.5384 17.1175 68.3048 16.8839C68.0545 16.6503 67.7876 16.4335 67.5207 16.2666C67.3038 16.1332 67.0869 15.9997 66.8533 15.9163C66.6198 15.8162 66.3862 15.7328 66.1359 15.6827C65.9858 15.6493 65.8356 15.616 65.6855 15.5993C65.5353 15.5826 65.3852 15.5659 65.235 15.5659C65.1683 15.5659 65.1182 15.5659 65.0515 15.5659C64.9848 15.5659 64.9347 15.5659 64.868 15.5826C64.6678 15.5993 64.4676 15.6327 64.2674 15.6827C64.0672 15.7328 63.8837 15.7995 63.6835 15.8662C63.5166 15.933 63.3498 16.0164 63.1829 16.1165C63.0161 16.1999 62.866 16.3167 62.7158 16.4168C62.5823 16.5169 62.5657 16.6837 62.6491 16.8172C62.6991 16.9006 62.7992 16.934 62.8826 16.934C62.9327 16.934 62.9994 16.9173 63.0495 16.8839C63.1829 16.7838 63.3331 16.7004 63.4666 16.617C63.6167 16.5336 63.7502 16.4668 63.9003 16.4001C64.0672 16.3334 64.234 16.2833 64.4008 16.2333C64.5677 16.1832 64.7512 16.1665 64.918 16.1498C64.9681 16.1498 65.0181 16.1498 65.0682 16.1332C65.1182 16.1332 65.1683 16.1332 65.2183 16.1332C65.3518 16.1332 65.4853 16.1332 65.6187 16.1498C65.7522 16.1665 65.869 16.1832 66.0025 16.2166C66.2027 16.2666 66.4196 16.3334 66.6198 16.4168C66.82 16.5002 67.0202 16.6003 67.2037 16.7338C67.4539 16.8839 67.6875 17.0841 67.9044 17.2843C68.1213 17.5012 68.3382 17.7348 68.5217 18.0017C68.9721 18.619 69.3225 19.3364 69.5727 20.1372C69.9064 20.9213 70.0399 21.8056 70.0399 22.7398Z" fill="#1C252C"/>
<path d="M66.7032 31.7321C66.82 31.4651 66.9368 31.1815 67.0535 30.9146C67.1703 30.6309 67.2871 30.3306 67.3872 30.0303C67.4873 29.73 67.5874 29.4297 67.6875 29.1127C67.7876 28.7791 67.8877 28.412 67.9711 28.0617C68.0546 27.7113 68.138 27.3443 68.2047 26.9939C68.3382 26.3099 68.4383 25.6092 68.505 24.9085C68.5717 24.1911 68.6051 23.457 68.6051 22.7396C68.6051 22.0222 68.4716 21.3215 68.2381 20.6875C68.0045 20.0703 67.6541 19.5364 67.2371 19.136C67.0535 18.9525 66.8367 18.8023 66.6198 18.6688C66.4029 18.5354 66.1693 18.4353 65.9357 18.3852C65.8356 18.3518 65.7355 18.3352 65.6188 18.3185C65.4019 18.2851 65.2017 18.2851 64.9848 18.3185C64.8847 18.3352 64.7846 18.3518 64.6845 18.3685C64.5343 18.4019 64.4342 18.5687 64.4843 18.7189C64.5176 18.869 64.6845 18.9691 64.8346 18.9191C64.918 18.9024 64.9848 18.8857 65.0682 18.869C65.235 18.8524 65.4019 18.8524 65.552 18.869C65.6354 18.8857 65.7189 18.9024 65.8023 18.9191C65.9858 18.9691 66.1693 19.0526 66.3528 19.1527C66.5364 19.2528 66.7032 19.3862 66.8533 19.5364C67.2204 19.8867 67.504 20.3539 67.7209 20.8877C67.9378 21.455 68.0546 22.089 68.0546 22.7396C68.0546 23.4403 68.0212 24.1577 67.9544 24.8584C67.8877 25.5425 67.7876 26.2265 67.6708 26.8938C67.6041 27.2442 67.5374 27.5945 67.4539 27.9449C67.3705 28.2786 67.2871 28.6289 67.187 28.9626C67.1036 29.2629 67.0035 29.5632 66.9034 29.8468C66.8033 30.1304 66.6865 30.4307 66.5864 30.7144C66.4696 30.9813 66.3695 31.2482 66.236 31.5152C66.1193 31.7821 65.9858 32.0324 65.869 32.2826C65.7355 32.5329 65.6021 32.7664 65.4686 33.0167C65.3351 33.2503 65.185 33.4838 65.0348 33.7174C64.9514 33.8509 64.9848 34.0177 65.1182 34.1178C65.1683 34.1512 65.2184 34.1679 65.2684 34.1679C65.3685 34.1679 65.4519 34.1178 65.502 34.0344C65.6521 33.8008 65.8023 33.5672 65.9357 33.317C66.0859 33.0667 66.2194 32.8165 66.3528 32.5662C66.4529 32.2659 66.5864 31.999 66.7032 31.7321Z" fill="#1C252C"/>
<path d="M68.4716 30.1139C68.5217 29.9638 68.4383 29.7969 68.2881 29.7636C68.138 29.7135 67.9711 29.7969 67.9378 29.9471C67.8377 30.2808 67.7209 30.5978 67.6041 30.9147C67.4873 31.2317 67.3538 31.5487 67.2204 31.849C67.0869 32.1326 66.9534 32.4329 66.82 32.7166C66.6865 33.0002 66.5363 33.2671 66.3862 33.5341C66.3028 33.6675 66.3528 33.851 66.503 33.9178C66.553 33.9345 66.5864 33.9511 66.6364 33.9511C66.7365 33.9511 66.8366 33.9011 66.8867 33.801C67.0369 33.5174 67.187 33.2338 67.3372 32.9501C67.4706 32.6665 67.6208 32.3662 67.7542 32.0659C67.8877 31.7489 68.0212 31.4319 68.138 31.0983C68.2381 30.798 68.3549 30.4643 68.4716 30.1139Z" fill="#1C252C"/>
<path d="M68.3715 15.2153C68.138 15.0485 67.9044 14.8816 67.6541 14.7482C67.4039 14.6147 67.1536 14.4979 66.8867 14.3978C66.6698 14.3144 66.4362 14.2643 66.2194 14.2143C65.9858 14.1642 65.7522 14.1309 65.5187 14.1309C65.4853 14.1309 65.4352 14.1309 65.4019 14.1309C65.185 14.1309 64.9848 14.1309 64.7679 14.1642C64.6011 14.1809 64.4342 14.2143 64.2674 14.2476C64.1172 14.281 64.0171 14.4312 64.0505 14.5813C64.0839 14.7148 64.2007 14.7982 64.3341 14.7982C64.3508 14.7982 64.3675 14.7982 64.4009 14.7982C64.551 14.7648 64.7012 14.7482 64.8346 14.7315C65.0181 14.7148 65.2017 14.6981 65.3852 14.7148C65.4185 14.7148 65.4519 14.7148 65.4853 14.7148C65.6855 14.7315 65.9024 14.7482 66.1026 14.7982C66.3028 14.8316 66.503 14.8983 66.7032 14.965C66.9367 15.0485 67.1703 15.1486 67.3872 15.2653C67.6041 15.3821 67.821 15.5323 68.0379 15.6824C68.0879 15.7158 68.1546 15.7325 68.2047 15.7325C68.2881 15.7325 68.3715 15.6991 68.4383 15.6157C68.5217 15.4822 68.4883 15.3154 68.3715 15.2153Z" fill="#1C252C"/>
<path d="M68.9054 25.2756C68.822 26.0764 68.7052 26.8606 68.5384 27.628C68.455 28.0284 68.3716 28.4121 68.2548 28.8125C68.2214 28.9627 68.3048 29.1128 68.455 29.1629C68.4717 29.1629 68.505 29.1796 68.5217 29.1796C68.6552 29.1796 68.7553 29.0961 68.8053 28.9627C68.9054 28.5623 69.0055 28.1619 69.089 27.7615C69.2558 26.9773 69.3726 26.1598 69.456 25.3423C69.5394 24.5082 69.5895 23.674 69.5895 22.8231C69.5895 22.8065 69.5895 22.8065 69.5895 22.7898C69.5895 22.7731 69.5895 22.7564 69.5895 22.7564C69.5895 22.7397 69.5895 22.723 69.5895 22.723C69.5895 22.7063 69.5895 22.7063 69.5895 22.6897C69.5895 21.8555 69.4393 21.038 69.1891 20.2872C68.9388 19.5532 68.5884 18.9192 68.138 18.3686C68.0379 18.2518 67.8544 18.2352 67.7376 18.3353C67.6208 18.4354 67.6041 18.6189 67.7042 18.7357C68.1046 19.2028 68.4383 19.8034 68.6552 20.4708C68.8888 21.1715 69.0222 21.9055 69.0222 22.6897V22.7064V22.7397C69.0222 22.7564 69.0222 22.7564 69.0222 22.7731C69.0222 22.7898 69.0222 22.7898 69.0222 22.8064V22.8398C69.0222 23.6406 68.9889 24.4581 68.9054 25.2756Z" fill="#1C252C"/>
<path d="M63.5167 13.0296C63.3165 13.0964 63.1162 13.1798 62.9327 13.2632C62.7492 13.3466 62.549 13.4467 62.3655 13.5635C62.1987 13.6636 62.0318 13.7637 61.8817 13.8805C61.7315 13.9973 61.5647 14.1141 61.4145 14.2475C61.2977 14.3476 61.2811 14.5312 61.3812 14.6479C61.4312 14.7147 61.5146 14.748 61.598 14.748C61.6648 14.748 61.7315 14.7314 61.7816 14.6813C61.915 14.5645 62.0652 14.4477 62.2153 14.3476C62.3655 14.2475 62.5156 14.1474 62.6658 14.064C62.8326 13.9639 63.0161 13.8805 63.183 13.7971C63.3498 13.7137 63.5333 13.6469 63.7169 13.5802C63.9004 13.5135 64.0839 13.4634 64.2674 13.43C64.4509 13.3967 64.6345 13.3633 64.8347 13.3466C64.9181 13.3466 65.0015 13.3299 65.0682 13.3299C65.2684 13.3133 65.4853 13.3299 65.6855 13.3466C65.8023 13.3633 65.9358 13.3633 66.0526 13.3967C66.0692 13.3967 66.0859 13.3967 66.1026 13.3967C66.2361 13.3967 66.3695 13.2966 66.3862 13.1464C66.4029 12.9963 66.3028 12.8461 66.1527 12.8294C66.0192 12.8127 65.8857 12.7961 65.7356 12.7794C65.6021 12.7627 65.4519 12.7627 65.3185 12.7627C65.2351 12.7627 65.135 12.7627 65.0515 12.7627C64.9681 12.7627 64.868 12.7794 64.7846 12.7794C64.5677 12.7961 64.3675 12.8294 64.1506 12.8795C63.9171 12.9128 63.7169 12.9629 63.5167 13.0296Z" fill="#1C252C"/>
<path d="M64.2173 31.732C64.3341 31.5318 64.4676 31.315 64.5844 31.0981C64.7012 30.8812 64.8013 30.6643 64.918 30.4474C65.0181 30.2305 65.1182 29.997 65.2183 29.7801C65.3185 29.5465 65.4019 29.3296 65.4853 29.096C65.5687 28.8625 65.6521 28.6289 65.7355 28.3786C65.819 28.1451 65.8857 27.8948 65.9524 27.6446C66.0192 27.3943 66.0859 27.1441 66.1359 26.8938C66.1693 26.7437 66.0692 26.5935 65.9191 26.5601C65.7689 26.5268 65.6188 26.6269 65.5854 26.777C65.5353 27.0273 65.4686 27.2609 65.4019 27.4944C65.3351 27.728 65.2684 27.9616 65.2017 28.1951C65.1349 28.4287 65.0515 28.6623 64.9681 28.8792C64.8847 29.096 64.8013 29.3296 64.7012 29.5465C64.6011 29.7634 64.5176 29.9803 64.4175 30.1972C64.3174 30.414 64.2173 30.6142 64.1006 30.8144C63.9838 31.0146 63.867 31.2315 63.7502 31.4151C63.6334 31.6153 63.4999 31.8155 63.3832 31.999C63.2497 32.1825 63.1162 32.3827 62.9828 32.5662C62.8493 32.7497 62.6991 32.9166 62.5657 33.1001C62.4656 33.2169 62.4823 33.4004 62.599 33.5005C62.6491 33.5505 62.7158 33.5672 62.7826 33.5672C62.866 33.5672 62.9494 33.5339 62.9994 33.4671C63.1496 33.2836 63.2997 33.1001 63.4332 32.9166C63.5834 32.7331 63.7168 32.5329 63.8503 32.3326C63.9671 32.1324 64.1006 31.9322 64.2173 31.732Z" fill="#1C252C"/>
<path d="M65.0181 32.5662C65.1516 32.3493 65.2851 32.1157 65.4018 31.8822C65.5186 31.6486 65.6521 31.415 65.7522 31.1648C65.869 30.9312 65.9691 30.6809 66.0859 30.4307C66.186 30.1804 66.2861 29.9302 66.3862 29.6633C66.4362 29.5131 66.3695 29.3463 66.2193 29.2962C66.0692 29.2462 65.9024 29.3129 65.8523 29.4631C65.7689 29.7133 65.6688 29.9636 65.5687 30.1971C65.4686 30.4307 65.3685 30.681 65.2517 30.9145C65.1349 31.1481 65.0181 31.3817 64.9013 31.5985C64.7846 31.8154 64.6511 32.049 64.5343 32.2492C64.4008 32.4661 64.2674 32.683 64.1339 32.8832C64.0004 33.0834 63.8503 33.2836 63.7168 33.4838C63.6167 33.6173 63.6501 33.7841 63.7669 33.8842C63.8169 33.9176 63.8836 33.9342 63.9337 33.9342C64.0171 33.9342 64.1005 33.9009 64.1673 33.8175C64.3174 33.6173 64.4676 33.4004 64.601 33.2002C64.7512 33.0166 64.8847 32.7998 65.0181 32.5662Z" fill="#1C252C"/>
<path d="M66.553 28.2453C66.5697 28.2453 66.6031 28.2619 66.6198 28.2619C66.7532 28.2619 66.8533 28.1785 66.9034 28.0451C66.9868 27.7448 67.0535 27.4445 67.1203 27.1275C67.187 26.8272 67.2537 26.5102 67.3038 26.1932C67.4039 25.6426 67.4706 25.0587 67.5207 24.4915C67.5707 23.9075 67.5874 23.3236 67.5874 22.7397C67.5874 22.1558 67.4706 21.5885 67.2371 21.1047C67.0035 20.6209 66.6698 20.2205 66.2861 19.9869C66.1359 19.8868 65.9691 19.8201 65.819 19.77C65.6021 19.7033 65.3685 19.6866 65.1349 19.7033C65.0849 19.7033 65.0348 19.72 64.9848 19.72C64.7846 19.7533 64.6011 19.8201 64.4175 19.9202C64.2507 20.0203 64.0839 20.1371 63.9337 20.2872C63.6501 20.5708 63.4165 20.9379 63.2497 21.355C63.0829 21.7887 62.9994 22.2559 62.9994 22.7397C62.9994 23.1901 62.9828 23.6573 62.9327 24.0911C62.8827 24.5248 62.8159 24.9586 62.7325 25.3924C62.6991 25.5425 62.7992 25.6927 62.9494 25.726C62.9661 25.726 62.9828 25.726 63.0161 25.726C63.1496 25.726 63.2664 25.6259 63.2997 25.4925C63.3998 25.0587 63.4666 24.5916 63.5166 24.1411C63.5667 23.674 63.5834 23.2068 63.5834 22.723C63.5834 22.3059 63.6501 21.9055 63.8003 21.5385C63.9337 21.1881 64.1172 20.8878 64.3508 20.6709C64.4676 20.5541 64.5844 20.4707 64.7178 20.3873C64.8513 20.3206 64.9848 20.2705 65.1182 20.2372C65.1516 20.2372 65.185 20.2205 65.2184 20.2205C65.3685 20.2038 65.5353 20.2205 65.6855 20.2705C65.8023 20.3039 65.9191 20.3539 66.0192 20.4207C66.3195 20.6042 66.5697 20.9212 66.7532 21.3049C66.9534 21.722 67.0535 22.2058 67.0535 22.7063C67.0535 23.2736 67.0369 23.8575 66.9868 24.408C66.9368 24.9586 66.87 25.5258 66.7866 26.0597C66.7366 26.36 66.6698 26.677 66.6198 26.9773C66.553 27.2776 66.4863 27.5779 66.4029 27.8615C66.3195 28.0451 66.4029 28.2119 66.553 28.2453Z" fill="#1C252C"/>
<path d="M64.8513 17.501C64.9848 17.4843 65.1349 17.4676 65.2851 17.4676C65.3185 17.4676 65.3351 17.4676 65.3685 17.4676C65.4019 17.4676 65.4186 17.4676 65.4519 17.4676C65.6354 17.4843 65.819 17.501 66.0025 17.551C66.186 17.6011 66.3528 17.6678 66.5197 17.7513C66.553 17.7679 66.6031 17.7846 66.6365 17.7846C66.7366 17.7846 66.8367 17.7179 66.8867 17.6178C66.9534 17.4843 66.9034 17.3008 66.7532 17.2341C66.553 17.134 66.3362 17.0505 66.136 17.0005C65.9191 16.9504 65.7022 16.9004 65.4686 16.9004C65.4352 16.9004 65.4019 16.9004 65.3685 16.9004C65.3351 16.9004 65.3018 16.9004 65.2684 16.9004C65.1016 16.9004 64.9181 16.9171 64.7512 16.9504C64.5844 16.9838 64.4175 17.0172 64.2507 17.0672C64.0839 17.1173 63.9004 17.2007 63.7335 17.2841C63.5667 17.3675 63.4165 17.4676 63.2497 17.5677C63.0829 17.6845 62.9327 17.818 62.7826 17.9515C62.6324 18.0849 62.4989 18.2518 62.3655 18.4186C62.2153 18.6021 62.0818 18.8023 61.9484 19.0025C61.8149 19.2027 61.6981 19.4363 61.598 19.6699C61.3978 20.1203 61.231 20.6041 61.1309 21.1213C61.0141 21.6385 60.9641 22.1891 60.9641 22.7396C60.9641 22.8898 61.0975 23.0233 61.2477 23.0233C61.3978 23.0233 61.5313 22.8898 61.5313 22.7396C61.5313 22.2224 61.5813 21.7219 61.6814 21.2381C61.7815 20.771 61.9317 20.3205 62.1152 19.9034C62.2153 19.6865 62.3154 19.4863 62.4322 19.3028C62.549 19.1193 62.6658 18.9358 62.7992 18.7689C62.916 18.6188 63.0495 18.4853 63.1663 18.3685C63.2997 18.2518 63.4332 18.135 63.5667 18.0349C63.7002 17.9348 63.8336 17.8514 63.9671 17.7846C64.1006 17.7179 64.2507 17.6511 64.4009 17.6011C64.5677 17.5677 64.7179 17.5344 64.8513 17.501Z" fill="#1C252C"/>
<path d="M65.8357 25.2255C65.8023 25.4924 65.7522 25.7427 65.7189 26.0096C65.6855 26.1598 65.8023 26.3099 65.9524 26.3433C65.9691 26.3433 65.9858 26.3433 66.0025 26.3433C66.136 26.3433 66.2527 26.2432 66.2861 26.1097C66.3362 25.8428 66.3695 25.5758 66.4029 25.3089C66.4529 24.8918 66.503 24.4747 66.5364 24.041C66.5697 23.6072 66.5864 23.1734 66.5864 22.7396C66.5864 22.3059 66.4696 21.9055 66.2361 21.5885C65.9858 21.2548 65.6521 21.0713 65.2851 21.0713C65.2684 21.0713 65.235 21.0713 65.2184 21.0713C65.2017 21.0713 65.1683 21.0713 65.1516 21.0713C64.818 21.1213 64.5177 21.3215 64.3008 21.6385C64.1006 21.9388 63.9838 22.3226 63.9838 22.723C63.9838 23.09 63.9671 23.4737 63.9504 23.8408C63.917 24.2078 63.8837 24.5748 63.8336 24.9252C63.8003 25.1588 63.7502 25.3923 63.7168 25.6259C63.6668 25.8595 63.6167 26.0764 63.5667 26.2932C63.5333 26.4434 63.6167 26.5935 63.7669 26.6436C63.7836 26.6436 63.8169 26.6603 63.8336 26.6603C63.9671 26.6603 64.0839 26.5769 64.1172 26.4434C64.1673 26.2098 64.234 25.9763 64.2841 25.7427C64.3341 25.5091 64.3675 25.2589 64.4176 25.0253C64.4676 24.6583 64.5177 24.2745 64.551 23.8908C64.5844 23.5071 64.6011 23.1067 64.6011 22.723C64.6011 22.4227 64.6845 22.1557 64.818 21.9388C64.9347 21.7553 65.1016 21.6385 65.2684 21.6218C65.2851 21.6218 65.2851 21.6218 65.3018 21.6218C65.552 21.6052 65.7356 21.8054 65.819 21.9055C65.9691 22.1224 66.0525 22.406 66.0525 22.723C66.0525 23.14 66.0359 23.5738 66.0192 23.9742C65.9358 24.408 65.9024 24.8251 65.8357 25.2255Z" fill="#1C252C"/>
<path d="M64.9014 24.0909C64.8847 24.3244 64.868 24.5413 64.8346 24.7749C64.8013 24.9918 64.7679 25.2253 64.7345 25.4422C64.7012 25.6591 64.6511 25.8927 64.6177 26.1096C64.5677 26.3265 64.5176 26.5433 64.4676 26.7602C64.4175 26.9771 64.3508 27.194 64.2841 27.4109C64.2173 27.6278 64.1506 27.828 64.0839 28.0449C64.0171 28.2618 63.9337 28.462 63.8503 28.6622C63.7669 28.8624 63.6835 29.0626 63.5834 29.2628C63.5166 29.4129 63.5834 29.5798 63.7168 29.6465C63.7502 29.6632 63.8003 29.6799 63.8336 29.6799C63.9337 29.6799 64.0505 29.6131 64.1006 29.513C64.2007 29.3128 64.2841 29.0959 64.3675 28.879C64.4509 28.6622 64.5343 28.4453 64.6177 28.2284C64.7012 28.0115 64.7679 27.7946 64.8346 27.5777C64.9014 27.3608 64.9681 27.1273 65.0182 26.9104C65.0682 26.6935 65.1349 26.4599 65.1683 26.2264C65.2184 25.9928 65.2517 25.7592 65.3018 25.5423C65.3351 25.3088 65.3685 25.0752 65.4019 24.8583C65.4352 24.6247 65.4519 24.3912 65.4686 24.1576C65.4853 24.0074 65.3685 23.8573 65.2017 23.8573C65.0515 23.8239 64.9181 23.9407 64.9014 24.0909Z" fill="#1C252C"/>
<path d="M61.8149 31.198C61.9484 31.0312 62.0818 30.8644 62.1986 30.6975C62.3154 30.5307 62.4489 30.3472 62.5657 30.1637C62.6824 29.9801 62.7825 29.7966 62.8993 29.6131C62.9994 29.4296 63.0995 29.2294 63.1996 29.0292C63.2997 28.829 63.3832 28.6288 63.4666 28.4286C63.55 28.2284 63.6334 28.0115 63.7168 27.7946C63.7669 27.6445 63.7001 27.4776 63.55 27.4276C63.3998 27.3775 63.233 27.4442 63.183 27.5944C63.1162 27.7946 63.0328 27.9948 62.9494 28.195C62.866 28.3952 62.7825 28.5787 62.6824 28.7789C62.599 28.9625 62.4989 29.1627 62.3988 29.3295C62.2987 29.513 62.1986 29.6965 62.0818 29.8634C61.9651 30.0302 61.8649 30.2137 61.7315 30.3806C61.6147 30.5474 61.4979 30.7142 61.3644 30.8644C61.231 31.0145 61.0975 31.1814 60.964 31.3148C60.8306 31.465 60.6971 31.5985 60.5469 31.7319C60.4302 31.832 60.4302 32.0155 60.5303 32.1323C60.5803 32.1991 60.6637 32.2157 60.7305 32.2157C60.7972 32.2157 60.8639 32.1824 60.9307 32.1323C61.0808 31.9822 61.231 31.832 61.3811 31.6819C61.5313 31.515 61.6814 31.3649 61.8149 31.198Z" fill="#1C252C"/>
<path d="M63.3498 15.1654C63.4833 15.0987 63.55 14.9319 63.4833 14.7817C63.4165 14.6482 63.2497 14.5815 63.0996 14.6483C62.9327 14.7317 62.7659 14.8318 62.6157 14.9319C62.4489 15.032 62.2987 15.1488 62.1486 15.2655C61.9984 15.3823 61.8483 15.5158 61.6981 15.6493C61.548 15.7827 61.4145 15.9329 61.281 16.083C61.1476 16.2332 61.0141 16.4 60.8806 16.5669C60.7472 16.7337 60.6304 16.9005 60.5136 17.084C60.3968 17.2676 60.28 17.4678 60.1799 17.6513C60.0798 17.8515 59.9797 18.0517 59.8796 18.2686C59.8129 18.4187 59.8796 18.5856 60.0298 18.6523C60.0631 18.669 60.1132 18.669 60.1466 18.669C60.2634 18.669 60.3635 18.6023 60.4135 18.5022C60.4969 18.3019 60.597 18.1184 60.6971 17.9349C60.7972 17.7514 60.8973 17.5679 61.0141 17.401C61.1142 17.2342 61.231 17.0674 61.3478 16.9172C61.4646 16.7671 61.5814 16.6169 61.7148 16.4834C61.8483 16.35 61.9651 16.2165 62.0985 16.083C62.232 15.9496 62.3655 15.8328 62.5156 15.7327C62.6491 15.6326 62.7993 15.5325 62.9327 15.4324C63.0662 15.3156 63.1997 15.2322 63.3498 15.1654Z" fill="#1C252C"/>
<path d="M62.7325 31.8324C62.866 31.6489 62.9995 31.4654 63.1162 31.2819C63.233 31.0983 63.3665 30.8981 63.4833 30.6979C63.5667 30.5645 63.5167 30.381 63.3832 30.3142C63.2497 30.2308 63.0662 30.2809 62.9995 30.4143C62.8827 30.5978 62.7659 30.7814 62.6491 30.9649C62.5323 31.1484 62.4155 31.3152 62.2821 31.4821C62.1486 31.6489 62.0151 31.8157 61.8817 31.9826C61.7482 32.1494 61.598 32.2996 61.4646 32.4497C61.3478 32.5665 61.3645 32.75 61.4813 32.8501C61.5313 32.9002 61.6147 32.9335 61.6815 32.9335C61.7482 32.9335 61.8316 32.9002 61.8817 32.8501C62.0318 32.7 62.182 32.5331 62.3321 32.3663C62.4489 32.1995 62.5991 32.0159 62.7325 31.8324Z" fill="#1C252C"/>
<path d="M59.0287 15.7161C59.0788 15.7494 59.1288 15.7661 59.1789 15.7661C59.279 15.7661 59.3624 15.7161 59.4125 15.6326C59.5292 15.4658 59.6293 15.2823 59.7628 15.1154C59.8796 14.9486 59.9964 14.7818 60.1299 14.6316C60.2633 14.4815 60.3968 14.3146 60.5303 14.1812C60.6637 14.031 60.7972 13.8975 60.9473 13.7641C61.0808 13.6306 61.231 13.5138 61.3811 13.3804C61.5313 13.2636 61.6814 13.1468 61.8316 13.0467C61.9984 12.9299 62.1819 12.8131 62.3488 12.713C62.5323 12.6129 62.6991 12.5128 62.8826 12.4461C63.0662 12.3627 63.2497 12.2959 63.4332 12.2292C63.6167 12.1625 63.8169 12.1124 64.0004 12.0624C64.1506 12.029 64.2507 11.8788 64.2173 11.7287C64.184 11.5785 64.0338 11.4784 63.8837 11.5118C63.6668 11.5619 63.4666 11.6119 63.2664 11.6953C63.0662 11.7621 62.866 11.8455 62.6658 11.9289C62.4656 12.0123 62.2653 12.1124 62.0818 12.2292C61.8983 12.3293 61.6981 12.4628 61.5146 12.5795C61.3478 12.6963 61.1976 12.8131 61.0308 12.9466C60.8806 13.0801 60.7138 13.2135 60.5636 13.347C60.4135 13.4971 60.2633 13.6473 60.1132 13.7974C59.963 13.9476 59.8295 14.1144 59.6961 14.2813C59.5626 14.4481 59.4291 14.6149 59.3124 14.7818C59.1956 14.9486 59.0621 15.1321 58.9453 15.3157C58.8619 15.4658 58.8953 15.6326 59.0287 15.7161Z" fill="#1C252C"/>
<path d="M60.964 30.3641C61.0975 30.214 61.231 30.0471 61.3478 29.8803C61.4645 29.7135 61.598 29.5466 61.7148 29.3631C61.8316 29.1796 61.9484 28.9961 62.0485 28.8126C62.1486 28.629 62.2487 28.4288 62.3488 28.2286C62.4489 28.0284 62.5323 27.8282 62.6157 27.6113C62.6991 27.3945 62.7825 27.1776 62.866 26.9607C62.916 26.8105 62.8326 26.6437 62.6824 26.5937C62.5323 26.5436 62.3654 26.627 62.3154 26.7772C62.2487 26.9774 62.1652 27.1943 62.0818 27.3945C61.9984 27.5947 61.915 27.7949 61.8149 27.9784C61.7315 28.1619 61.6314 28.3454 61.5313 28.5289C61.4312 28.7125 61.3311 28.8793 61.2143 29.0461C61.0975 29.213 60.9974 29.3798 60.8806 29.53C60.7638 29.6801 60.647 29.8303 60.5136 29.9804C60.3801 30.1306 60.2466 30.264 60.1132 30.3975C59.9797 30.531 59.8462 30.6644 59.6961 30.7812C59.5793 30.8813 59.5626 31.0648 59.6627 31.1816C59.7128 31.2484 59.7962 31.2817 59.8796 31.2817C59.9463 31.2817 60.0131 31.265 60.0631 31.215C60.2133 31.0815 60.3634 30.9481 60.5136 30.7979C60.6971 30.6811 60.8306 30.5143 60.964 30.3641Z" fill="#1C252C"/>
<path d="M60.23 29.3964C60.3301 29.2796 60.3301 29.0961 60.2133 28.996C60.0965 28.8959 59.913 28.8959 59.8129 29.0126C59.6794 29.1461 59.5627 29.2796 59.4292 29.4131C59.2957 29.5465 59.1622 29.6633 59.0121 29.7634C58.8953 29.8635 58.8619 30.047 58.962 30.1638C59.0121 30.2305 59.0955 30.2806 59.1789 30.2806C59.2457 30.2806 59.2957 30.2639 59.3458 30.2139C59.4959 30.0971 59.6461 29.9636 59.7962 29.8301C59.9631 29.6967 60.0965 29.5465 60.23 29.3964Z" fill="#1C252C"/>
<path d="M63.233 20.1704C63.3498 20.0036 63.4666 19.8368 63.6001 19.6866C63.7335 19.5365 63.867 19.4197 64.0171 19.3029C64.1506 19.2028 64.1673 19.036 64.0672 18.9025C63.9671 18.769 63.8003 18.7523 63.6668 18.8524C63.5 18.9859 63.3331 19.1361 63.183 19.3029C63.0328 19.4697 62.8993 19.6532 62.7659 19.8701C62.5156 20.2705 62.3321 20.7043 62.1986 21.1881C62.0652 21.6886 61.9984 22.2058 61.9984 22.7397C61.9984 23.2402 61.9651 23.7407 61.8983 24.2245C61.8316 24.6917 61.7315 25.1755 61.6147 25.6093C61.548 25.8428 61.4812 26.0764 61.3978 26.31C61.3144 26.5436 61.231 26.7604 61.1309 26.9773C61.0475 27.1775 60.9474 27.361 60.8473 27.5446C60.7472 27.7281 60.6471 27.9116 60.5303 28.0784C60.4469 28.2119 60.4802 28.3954 60.6137 28.4788C60.6637 28.5122 60.7138 28.5289 60.7639 28.5289C60.864 28.5289 60.9474 28.4788 60.9974 28.3954C61.1142 28.2119 61.231 28.0117 61.3311 27.8282C61.4312 27.628 61.5313 27.4278 61.6314 27.2109C61.7315 26.9773 61.8316 26.7438 61.915 26.5102C61.9984 26.2599 62.0819 26.0097 62.1486 25.7594C62.2821 25.2923 62.3822 24.7918 62.4489 24.2913C62.5156 23.7741 62.549 23.2569 62.549 22.7397C62.549 22.2559 62.6157 21.7887 62.7325 21.3383C62.8493 20.9212 63.0161 20.5208 63.233 20.1704Z" fill="#1C252C"/>
<path d="M59.1289 27.0607C59.279 26.8772 59.4125 26.677 59.546 26.4768C59.6794 26.2766 59.7962 26.043 59.8963 25.8094C60.0965 25.359 60.2634 24.8751 60.3635 24.358C60.4802 23.8408 60.5303 23.2902 60.5303 22.7397C60.5303 22.2225 60.5803 21.7053 60.6638 21.2048C60.7472 20.7209 60.864 20.2538 61.0308 19.8033C61.1142 19.5698 61.1976 19.3529 61.2977 19.136C61.3978 18.9191 61.4979 18.7189 61.6147 18.5187C61.7148 18.3352 61.8316 18.1684 61.9484 18.0182C62.0652 17.8514 62.182 17.7012 62.3154 17.5678C62.4155 17.451 62.4155 17.2675 62.2987 17.1673C62.182 17.0672 61.9984 17.0672 61.8983 17.184C61.7649 17.3342 61.6314 17.5177 61.4979 17.6845C61.3645 17.8514 61.2477 18.0516 61.1309 18.2351C61.0141 18.452 60.8973 18.6689 60.7805 18.9024C60.6804 19.136 60.5803 19.3696 60.4969 19.6198C60.3301 20.1037 60.1966 20.6042 60.1132 21.1214C60.0298 21.6552 59.9797 22.1891 59.9797 22.7397C59.9797 23.2568 59.9297 23.7574 59.8296 24.2412C59.7295 24.7083 59.5793 25.1588 59.3958 25.5759C59.2957 25.7927 59.1956 25.9929 59.0788 26.1765C58.962 26.36 58.8453 26.5435 58.7118 26.7103C58.595 26.8605 58.4615 26.994 58.3281 27.1107C58.1946 27.2275 58.0611 27.3443 57.9277 27.4444C57.7942 27.5278 57.7775 27.7114 57.8609 27.8448C57.911 27.9282 58.0111 27.9616 58.0945 27.9616C58.1445 27.9616 58.2113 27.9449 58.2613 27.9116C58.4282 27.7948 58.5783 27.6613 58.7285 27.5278C58.8453 27.3777 58.9954 27.2275 59.1289 27.0607Z" fill="#1C252C"/>
<path d="M59.6294 28.2951C59.7628 28.1449 59.8963 27.9614 60.0298 27.7946C60.1633 27.6277 60.28 27.4275 60.3968 27.244C60.5136 27.0271 60.6304 26.8102 60.7472 26.5767C60.8473 26.3431 60.9474 26.1095 61.0308 25.8593C61.0808 25.7091 60.9974 25.5423 60.864 25.4922C60.7138 25.4422 60.547 25.5256 60.4969 25.6591C60.4135 25.8926 60.3301 26.1095 60.23 26.3264C60.1299 26.5433 60.0298 26.7435 59.913 26.9437C59.8129 27.1272 59.6961 27.294 59.5793 27.4442C59.4625 27.611 59.3458 27.7612 59.2123 27.8947C59.0955 28.0281 58.962 28.1616 58.8286 28.2784C58.6951 28.3952 58.5616 28.5119 58.4115 28.612C58.278 28.7121 58.2613 28.879 58.3448 29.0124C58.3948 29.0959 58.4949 29.1292 58.5783 29.1292C58.6284 29.1292 58.6951 29.1126 58.7452 29.0792C58.8953 28.9624 59.0621 28.8456 59.2123 28.6955C59.3458 28.5954 59.4792 28.4452 59.6294 28.2951Z" fill="#1C252C"/>
<path d="M57.594 25.1921C57.8776 24.9085 58.1111 24.5414 58.278 24.1243C58.4448 23.6906 58.5282 23.2234 58.5282 22.7396C58.5282 22.2891 58.5449 21.822 58.595 21.3882C58.645 20.9545 58.7117 20.5207 58.7952 20.0869C58.8452 19.8533 58.8953 19.6031 58.962 19.3695C59.0287 19.1359 59.0955 18.9024 59.1789 18.6855C59.2456 18.4853 59.329 18.2684 59.4125 18.0682C59.4959 17.868 59.5793 17.6678 59.6794 17.4843C59.7628 17.3008 59.8629 17.1172 59.963 16.9337C60.0631 16.7502 60.1632 16.5834 60.28 16.4165C60.3968 16.2497 60.4969 16.0829 60.6137 15.9327C60.7305 15.7826 60.8472 15.6324 60.9807 15.4822C61.0808 15.3655 61.0641 15.1819 60.9473 15.0818C60.8306 14.9817 60.647 14.9984 60.5469 15.1152C60.4135 15.2654 60.28 15.4322 60.1632 15.599C60.0464 15.7659 59.913 15.9327 59.7962 16.1162C59.6794 16.2997 59.5626 16.4833 59.4625 16.6668C59.3624 16.8503 59.2623 17.0505 59.1622 17.2507C59.0621 17.4509 58.9787 17.6511 58.8953 17.868C58.8119 18.0849 58.7284 18.3018 58.645 18.5187C58.5616 18.7522 58.4949 18.9858 58.4281 19.236C58.3614 19.4863 58.2947 19.7366 58.2446 19.9868C58.1445 20.4373 58.0778 20.8877 58.0277 21.3382C57.9777 21.8053 57.961 22.2725 57.961 22.7563C57.961 23.1734 57.8943 23.5738 57.7441 23.9408C57.6106 24.2912 57.4271 24.5915 57.1935 24.8084C57.0768 24.9251 57.0768 25.092 57.1935 25.2088C57.2436 25.2588 57.327 25.2922 57.3938 25.2922C57.4605 25.2755 57.5439 25.2421 57.594 25.1921Z" fill="#1C252C"/>
<path d="M58.3447 26.16C58.4949 25.9932 58.6283 25.8096 58.7618 25.5927C59.0121 25.1923 59.1956 24.7586 59.329 24.2747C59.4625 23.7742 59.5292 23.2571 59.5292 22.7232C59.5292 22.2227 59.5626 21.7222 59.6294 21.2383C59.6961 20.7712 59.7962 20.3041 59.913 19.8536C59.963 19.7035 59.8629 19.5366 59.7128 19.5033C59.5626 19.4532 59.3958 19.5533 59.3624 19.7035C59.2289 20.1706 59.1288 20.6711 59.0621 21.1716C58.9954 21.6888 58.962 22.206 58.962 22.7232C58.962 23.207 58.8953 23.6741 58.7785 24.1246C58.6617 24.5584 58.4949 24.9421 58.278 25.2924C58.1612 25.4593 58.0444 25.6261 57.9109 25.7763C57.7775 25.9264 57.644 26.0432 57.4939 26.16C57.3604 26.2601 57.3437 26.4269 57.4438 26.5604C57.4939 26.6271 57.5773 26.6772 57.6774 26.6772C57.7441 26.6772 57.7942 26.6605 57.8442 26.6271C58.011 26.477 58.1779 26.3268 58.3447 26.16Z" fill="#1C252C"/>
<path d="M57.5105 22.7397C57.5105 22.3726 57.5272 21.9889 57.5439 21.6219C57.5773 21.2548 57.6106 20.8878 57.6607 20.5375C57.6941 20.3039 57.7441 20.0703 57.7775 19.8367C57.8275 19.6032 57.8776 19.3863 57.9276 19.1694C57.9777 18.9525 58.0444 18.7356 58.1111 18.5354C58.1779 18.3352 58.2446 18.1183 58.3114 17.9181C58.3614 17.768 58.2947 17.6012 58.1445 17.5511C57.9944 17.501 57.8275 17.5678 57.7775 17.7179C57.6941 17.9348 57.6273 18.1517 57.5606 18.3686C57.4939 18.5855 57.4271 18.819 57.3771 19.0359C57.327 19.2695 57.2603 19.5031 57.2102 19.7366C57.1602 19.9702 57.1268 20.2205 57.0768 20.454C57.0267 20.8211 56.9767 21.2048 56.9433 21.5885C56.9099 21.9722 56.8932 22.3726 56.8932 22.7564C56.8932 22.9065 57.0267 23.04 57.1769 23.04C57.327 23.04 57.5105 22.8898 57.5105 22.7397Z" fill="#1C252C"/>
</svg>
