<svg width="60" height="51" viewBox="0 0 60 51" fill="none" xmlns="http://www.w3.org/2000/svg">
<path d="M42.0256 15.5474C41.5868 15.5474 41.5868 15.5474 41.5868 15.5474C41.1129 15.6 40.7092 16.267 40.7092 17.0218V17.6186C40.7092 18.391 41.0953 18.9702 41.5693 18.9C41.5693 18.9 41.5693 18.9 42.0256 18.9C46.291 18.9 49.7665 22.3755 49.7665 26.6409C49.7665 27.0973 49.7665 27.0973 49.7665 27.0973C49.6963 27.5712 50.2756 27.9574 51.0479 27.9574H51.6447C52.417 27.9574 53.0841 27.5712 53.1367 27.0797C53.1367 27.0797 53.1367 27.0797 53.1367 26.6233C53.1367 20.5324 48.1517 15.5474 42.0256 15.5474Z" fill="#1C252C"/>
<path d="M43.5177 22.3584C41.973 22.3584 40.7092 23.6222 40.7092 25.1669C40.7092 26.7115 41.973 27.9754 43.5177 27.9754C45.0623 27.9754 46.3261 26.7115 46.3261 25.1669C46.3261 23.6222 45.0623 22.3584 43.5177 22.3584Z" fill="#1C252C"/>
<path d="M42.0256 8.66699C41.9554 8.66699 41.8677 8.66699 41.7975 8.66699C41.4288 8.66699 41.4288 8.66699 41.4288 8.66699C41.0251 8.68455 40.7092 9.35156 40.7092 10.1063V10.6856C40.7092 11.4579 41.0427 12.0547 41.4464 12.0372C41.4464 12.0372 41.4464 12.0372 41.8326 12.0372C41.9028 12.0372 41.9554 12.0372 42.0256 12.0372C50.0825 12.0372 56.6473 18.602 56.6473 26.6588C56.6473 26.7993 56.6473 26.9221 56.6473 27.0626C56.6473 27.361 56.6473 27.361 56.6473 27.361C56.6298 27.6945 57.2266 27.9753 57.9989 27.9753H58.5606C59.3329 27.9753 59.9824 27.6945 59.9999 27.361C59.9999 27.361 59.9999 27.361 59.9999 27.045C59.9999 26.9046 59.9999 26.7817 59.9999 26.6413C60.0175 16.7414 51.9431 8.66699 42.0256 8.66699Z" fill="#1C252C"/>
<path d="M26.2806 16.355C23.0859 16.355 20.2248 17.8119 18.3291 20.1113C16.8546 21.9017 15.9594 24.1836 15.9594 26.6762V32.0474H14.5727H10.1844V33.4165V50.8116H40.99H42.3591V32.0298H36.5842V26.6762C36.6018 20.989 31.9678 16.355 26.2806 16.355ZM28.4923 45.8967H24.0689L25.2449 41.2978C24.4024 40.8941 23.8056 40.0516 23.8056 39.051C23.8056 37.6819 24.9114 36.5761 26.2806 36.5761C27.6497 36.5761 28.7556 37.6819 28.7556 39.051C28.7556 40.0516 28.1588 40.8941 27.3162 41.2978L28.4923 45.8967ZM33.3896 32.0474H32.0204H19.1716V26.6762C19.1716 25.0613 19.7157 23.5868 20.6285 22.3932C21.9274 20.673 23.9811 19.5672 26.2981 19.5672C30.2125 19.5672 33.4071 22.7618 33.4071 26.6762V32.0474H33.3896Z" fill="#1C252C"/>
<path d="M8.02545 12.9145C11.1499 9.7901 16.2227 9.7901 19.3472 12.9145C19.6807 13.248 19.6807 13.248 19.6807 13.248C19.9791 13.6342 20.6987 13.5113 21.2604 12.9496L21.6993 12.5108C22.261 11.9491 22.4716 11.1768 22.1381 10.7906C22.1381 10.7906 22.1381 10.7906 21.8046 10.4571C17.3286 5.98109 10.0441 5.98109 5.56803 10.4571C5.23452 10.7906 5.23452 10.7906 5.23452 10.7906C4.91857 11.1768 5.11165 11.9491 5.67335 12.5108L6.11217 12.9496C6.67387 13.5113 7.39354 13.6518 7.69195 13.248C7.7095 13.248 7.7095 13.248 8.02545 12.9145Z" fill="#1C252C"/>
<path d="M15.7488 18.4612C14.6254 19.6021 12.7824 19.5846 11.6414 18.4612C10.5005 17.3378 10.5005 15.4947 11.6414 14.3538C12.7648 13.2304 14.6079 13.2304 15.7488 14.3538C16.8722 15.4947 16.8722 17.3202 15.7488 18.4612Z" fill="#1C252C"/>
<path d="M0.372335 5.61258C0.109039 5.87588 0.109039 5.87588 0.109039 5.87588C-0.154256 6.19183 0.0739331 6.89395 0.63563 7.45565L1.0569 7.87692C1.6186 8.43862 2.30317 8.6317 2.58402 8.31575C2.58402 8.31575 2.58402 8.31575 2.86486 8.0349C2.91752 7.98224 2.95263 7.94713 3.00529 7.89447C8.90311 1.99666 18.4871 1.99666 24.3849 7.89447C24.4902 7.99979 24.578 8.08756 24.6833 8.19288C24.8939 8.42107 24.8939 8.42107 24.8939 8.42107C25.1221 8.68436 25.7716 8.43862 26.3333 7.87692L26.7545 7.45565C27.3162 6.89395 27.5971 6.20938 27.3689 5.96364C27.3689 5.96364 27.3689 5.96364 27.1407 5.73545C27.0529 5.63013 26.9476 5.54237 26.8599 5.43705C19.5929 -1.81235 7.79727 -1.81235 0.547865 5.43705C0.495206 5.48971 0.424994 5.54237 0.372335 5.61258Z" fill="#1C252C"/>
</svg>
