<svg width="46" height="70" viewBox="0 0 46 70" fill="none" xmlns="http://www.w3.org/2000/svg">
<path d="M21.0228 47.1752C21.9253 48.0777 23.4185 48.0777 24.321 47.1752L32.7059 38.7903C33.6084 37.8878 33.674 36.4602 32.8371 35.6234C32.0003 34.7865 30.5727 34.8522 29.6702 35.7546L24.3374 41.0875C23.4349 41.99 21.9417 41.99 21.0392 41.0875L15.7063 35.7546C14.8038 34.8522 13.3763 34.7865 12.5394 35.6234C11.7026 36.4602 11.7682 37.8878 12.6707 38.7903L21.0228 47.1752Z" fill="#1C252C"/>
<path d="M21.0228 57.3158C21.9253 58.2183 23.4185 58.2183 24.321 57.3158L32.7059 48.9309C33.6084 48.0284 33.674 46.6008 32.8371 45.764C32.0003 44.9271 30.5727 44.9928 29.6702 45.8953L24.3374 51.2281C23.4349 52.1306 21.9417 52.1306 21.0392 51.2281L15.7063 45.8953C14.8038 44.9928 13.3763 44.9271 12.5394 45.764C11.7026 46.6008 11.7682 48.0284 12.6707 48.9309L21.0228 57.3158Z" fill="#1C252C"/>
<path d="M39.6468 56.2168C38.4982 56.2168 37.5629 57.1521 37.5629 58.3007V59.597V62.5506H7.78089V59.597V58.3007C7.78089 57.1521 6.84559 56.2168 5.69697 56.2168C4.54835 56.2168 3.61305 57.1521 3.61305 58.3007V59.597V63.371V67.9163C3.61305 69.0649 4.54835 70.0002 5.69697 70.0002H39.6468C40.7954 70.0002 41.7307 69.0649 41.7307 67.9163V63.371V59.597V58.3007C41.7307 57.1521 40.7954 56.2168 39.6468 56.2168ZM37.5629 65.816H7.78089V64.1915H37.5629V65.816Z" fill="#1C252C"/>
<path d="M44.8484 0.738397C44.4546 0.262541 43.8639 0 43.2075 0H12.5722C11.3088 0 10.1437 0.984529 9.93043 2.2316L9.91402 2.31364H2.11983C1.47989 2.31364 0.872763 2.57618 0.478952 3.05204C0.0851402 3.52789 -0.078948 4.18425 0.0359137 4.82419L4.02326 27.4355C4.25298 28.7154 5.418 29.7 6.68148 29.7H38.6623C39.3022 29.7 39.9093 29.4374 40.3031 28.9616C40.5493 28.6662 40.697 28.3216 40.7626 27.9442H40.779L45.2914 2.51055C45.4063 1.8706 45.2422 1.21425 44.8484 0.738397ZM39.0725 27.9442C38.974 28.0591 38.8264 28.1247 38.6459 28.1247H6.68148C6.18922 28.1247 5.68055 27.6817 5.5985 27.1894L1.59475 4.56165C1.56193 4.36474 1.59475 4.20066 1.6932 4.08579C1.79166 3.97093 1.93934 3.9053 2.11983 3.9053H11.3416C11.8339 3.9053 12.3425 4.34834 12.4246 4.8406L12.5887 5.80872C12.8184 7.0722 13.967 8.05673 15.2305 8.05673H34.8226C35.3149 8.05673 35.8235 8.49977 35.9056 8.99203L39.1545 27.4519C39.2202 27.6488 39.1709 27.8129 39.0725 27.9442ZM43.7326 2.24801L40.0242 23.0872L37.4972 8.72949C37.2839 7.46601 36.1189 6.48148 34.8554 6.48148H15.2469C14.7546 6.48148 14.2459 6.03844 14.1639 5.54618L13.9998 4.57806C13.7865 3.38022 12.7363 2.44491 11.5385 2.34646C11.7026 1.93624 12.1456 1.59165 12.5722 1.59165H43.2075C43.388 1.59165 43.5357 1.65729 43.6341 1.77215C43.7326 1.88701 43.7654 2.0511 43.7326 2.24801Z" fill="#1C252C"/>
</svg>
