<svg width="28" height="24" viewBox="0 0 28 24" fill="none" xmlns="http://www.w3.org/2000/svg">
<path d="M26.9966 4.61226C26.9154 4.4859 26.771 4.41369 26.6266 4.41369H5.30726L4.68447 2.96954C4.7296 2.77999 4.75668 2.58142 4.75668 2.38285C4.75668 1.06506 3.69161 0 2.38285 0C1.06506 0 0 1.06506 0 2.38285C0 3.63746 0.974803 4.66642 2.20233 4.75668L8.02407 18.2866C6.83264 18.6566 5.97518 19.7668 5.97518 21.0756C5.97518 22.6912 7.28394 24 8.89959 24C10.5152 24 11.824 22.6912 11.824 21.0756C11.824 20.2903 11.5171 19.5773 11.0117 19.0538H21.0034C20.4979 19.5773 20.1911 20.2903 20.1911 21.0756C20.1911 22.6912 21.5088 24 23.1155 24C24.7311 24 26.0399 22.6912 26.0399 21.0756C26.0399 19.8029 25.2185 18.7198 24.0812 18.3137V16.5085C24.0812 16.2557 23.8736 16.0572 23.6299 16.0572H22.8176L27.0598 5.01843C27.1049 4.89206 27.0869 4.7296 26.9966 4.61226ZM2.44603 3.85408C2.42798 3.85408 2.4009 3.85408 2.38285 3.85408C1.57052 3.85408 0.911621 3.19519 0.911621 2.37382C0.911621 1.56149 1.57052 0.902595 2.38285 0.902595C3.19519 0.902595 3.85408 1.56149 3.85408 2.37382C3.85408 3.15006 3.25837 3.78187 2.50019 3.84505C2.48214 3.85408 2.46408 3.85408 2.44603 3.85408ZM8.89056 23.0974C7.78037 23.0974 6.86875 22.1948 6.86875 21.0756C6.86875 19.9654 7.77134 19.0538 8.89056 19.0538C10.0098 19.0538 10.9124 19.9564 10.9124 21.0756C10.9033 22.1948 10.0008 23.0974 8.89056 23.0974ZM25.1282 21.0756C25.1282 22.1858 24.2257 23.0974 23.1064 23.0974C21.9962 23.0974 21.0846 22.1948 21.0846 21.0756C21.0846 19.9654 21.9872 19.0538 23.1064 19.0538C24.2166 19.0538 25.1282 19.9654 25.1282 21.0756ZM23.1696 16.9688V18.1512C23.1516 18.1512 23.1245 18.1512 23.1064 18.1512H8.94472L3.132 4.63934C3.52012 4.51298 3.86311 4.2783 4.13389 3.98044L7.03122 10.7138L7.04024 10.7409L9.60361 16.698C9.67582 16.8605 9.83829 16.9688 10.0188 16.9688H23.1696Z" fill="#1C252C"/>
</svg>
