<svg width="21" height="21" viewBox="0 0 21 21" fill="none" xmlns="http://www.w3.org/2000/svg">
<path d="M2.3033 2.30314C-0.624121 5.23057 -0.584016 10.0224 2.39282 12.9993C5.08923 15.6957 9.26287 15.9873 12.2022 13.8461L18.3231 19.9669C18.7869 20.4307 19.5249 20.4369 19.981 19.9808C20.4371 19.5247 20.4309 18.7867 19.9671 18.3229L13.8462 12.2021C15.9875 9.26271 15.6958 5.08908 12.9994 2.39267C10.0226 -0.584173 5.23072 -0.624278 2.3033 2.30314ZM12.3609 12.3608C9.82594 14.8957 5.68114 14.8557 3.10877 12.2833C0.530999 9.70555 0.496354 5.56615 3.03133 3.03118C5.56631 0.496198 9.7111 0.536235 12.2835 3.10861C14.8612 5.68638 14.8959 9.82578 12.3609 12.3608Z" fill="black"/>
</svg>
