<svg width="57" height="70" viewBox="0 0 57 70" fill="none" xmlns="http://www.w3.org/2000/svg">
<path d="M44.8302 6.58936C44.5242 6.58936 44.5242 6.58936 44.5242 6.58936C44.2001 6.62536 43.948 7.05746 43.948 7.57958V7.97567C43.948 8.49779 44.2181 8.87588 44.5242 8.83987C44.5242 8.83987 44.5242 8.83987 44.8302 8.83987C47.6749 8.83987 49.9974 11.1624 49.9974 14.0071C49.9974 14.3131 49.9974 14.3131 49.9974 14.3131C49.9614 14.6372 50.3395 14.8893 50.8616 14.8893H51.2577C51.7798 14.8893 52.2119 14.6192 52.2479 14.3131C52.2479 14.3131 52.2479 14.3131 52.2479 14.0071C52.2659 9.92012 48.9352 6.58936 44.8302 6.58936Z" fill="#1C252C"/>
<path d="M45.8205 11.1445C44.7942 11.1445 43.948 11.9907 43.948 13.017C43.948 14.0432 44.7942 14.8894 45.8205 14.8894C46.8467 14.8894 47.6929 14.0432 47.6929 13.017C47.6929 11.9907 46.8647 11.1445 45.8205 11.1445Z" fill="#1C252C"/>
<path d="M44.8302 1.99854C44.7762 1.99854 44.7222 1.99854 44.6682 1.99854C44.4162 1.99854 44.4161 1.99854 44.4161 1.99854C44.1461 2.01654 43.93 2.44864 43.93 2.97076V3.34884C43.93 3.87096 44.1461 4.26705 44.4342 4.24905C44.4342 4.24905 44.4342 4.24905 44.6862 4.24905C44.7222 4.24905 44.7762 4.24905 44.8122 4.24905C50.1955 4.24905 54.5885 8.62405 54.5885 14.0253C54.5885 14.1153 54.5885 14.2053 54.5885 14.2953C54.5885 14.4934 54.5885 14.4934 54.5885 14.4934C54.5705 14.7094 54.9846 14.9075 55.4887 14.9075H55.8668C56.3889 14.9075 56.821 14.7274 56.839 14.4934C56.839 14.4934 56.839 14.4934 56.839 14.2953C56.839 14.2053 56.839 14.1153 56.839 14.0253C56.857 7.38177 51.4558 1.99854 44.8302 1.99854Z" fill="#1C252C"/>
<path d="M33.7217 0H13.7371C10.4784 0 7.81378 2.59259 7.81378 5.85134V47.8549C7.81378 51.1137 10.4964 53.7063 13.7371 53.7063H33.7217C36.9804 53.7063 39.573 51.1137 39.573 47.8549V43.624V42.3997V9.27212V8.94805V5.85134C39.573 2.59259 36.9804 0 33.7217 0Z" fill="#1C252C"/>
<path d="M36.2423 9.27197V42.4175V42.4896H11.2166V6.58936H36.2423V8.92989V9.27197Z" fill="#FEFEFE"/>
<path d="M23.7294 50.7895C22.1811 50.7895 21.0468 49.5653 21.0468 48.1069C21.0468 46.6486 22.1811 45.4243 23.7294 45.4243C25.1877 45.4243 26.412 46.6486 26.412 48.1069C26.412 49.5653 25.1877 50.7895 23.7294 50.7895Z" fill="#FCD802"/>
<path d="M35.6301 55.3807C35.6301 58.6215 32.4434 63.3926 30.9491 65.463C31.6332 65.6251 32.1373 66.2552 32.1373 66.9934V67.5155C32.1373 68.3797 31.4352 69.0999 30.553 69.0999H14.9434C14.0792 69.0999 13.3591 68.3977 13.3591 67.5155V66.9934C13.3591 66.1292 14.0612 65.427 14.9074 65.409V63.7526C14.9074 59.6297 7.18364 52.9142 3.4748 49.6914C2.30453 48.6652 1.44033 47.927 1.04424 47.4949C0.864199 47.2969 0.828191 46.9908 0.95422 46.7568C1.53035 45.6765 2.50257 44.9923 3.74486 44.7943C5.97737 44.4162 8.84002 45.6225 11.4326 48.017C12.7469 49.2413 13.8452 49.5834 14.2953 49.3673C14.7454 49.1693 14.8174 48.3231 14.8174 47.837V31.0031C14.8174 29.2567 16.2937 27.1143 18.0401 27.1143C19.7685 27.1143 21.1728 29.2387 21.1728 31.0031V39.123C21.659 38.7989 22.2531 38.6189 22.8652 38.6189C24.4136 38.6189 25.7099 39.7531 25.9619 41.2475C26.466 40.9054 27.0602 40.7254 27.6903 40.7254C29.0586 40.7254 30.2109 41.6076 30.643 42.8138C31.1651 42.4178 31.8133 42.1837 32.4974 42.1837C33.9017 42.1837 35.144 43.1379 35.5041 44.4882C35.5401 44.5963 35.6121 44.8843 35.6121 45.3164V55.3807H35.6301Z" fill="#FCD802"/>
<path d="M30.553 69.9999H14.9434C13.5751 69.9999 12.4588 68.8836 12.4588 67.5153V66.9932C12.4588 65.967 13.107 65.0667 14.0072 64.6887V63.7524C14.0072 60.0256 6.21141 53.256 2.88065 50.3754L2.82664 50.3214C1.60236 49.2591 0.81018 48.557 0.378081 48.0889C-0.0540176 47.6028 -0.126034 46.9006 0.180036 46.3245C0.900201 44.9922 2.08847 44.146 3.61882 43.8939C6.12139 43.4798 9.27211 44.7761 12.0628 47.3507C12.945 48.1609 13.5931 48.4309 13.8812 48.503C13.9172 48.3769 13.9532 48.1609 13.9532 47.8368V31.003C13.9532 28.8245 15.7896 26.2139 18.0761 26.2139C20.3446 26.2139 22.109 28.7885 22.109 31.003V37.8085C22.3611 37.7545 22.6312 37.7365 22.9012 37.7365C24.4856 37.7365 25.8719 38.6367 26.5381 40.005C26.9161 39.879 27.3122 39.825 27.7263 39.825C29.0766 39.825 30.3189 40.5091 31.0571 41.5894C31.5252 41.3913 32.0293 41.3013 32.5514 41.3013C34.3518 41.3013 35.9362 42.5076 36.4223 44.254C36.4763 44.452 36.5844 44.8301 36.5844 45.3342V55.3805C36.5844 58.4592 34.1178 62.5642 32.2994 65.1748C32.7855 65.6249 33.0916 66.273 33.0916 66.9932V67.5153C33.0375 68.8836 31.9213 69.9999 30.553 69.9999ZM1.85442 47.0266C2.25051 47.4407 3.04269 48.1249 4.01491 48.9711L4.06892 49.0251C10.1723 54.3183 15.8256 59.7735 15.8256 63.7705V65.4268C15.8256 65.9129 15.4295 66.327 14.9434 66.327C14.5653 66.327 14.2773 66.6331 14.2773 67.0112V67.5333C14.2773 67.9114 14.5833 68.2175 14.9614 68.2175H30.571C30.9491 68.2175 31.2551 67.9114 31.2551 67.5333V67.0112C31.2551 66.7051 31.0391 66.4351 30.751 66.363C30.463 66.291 30.2289 66.075 30.1209 65.8049C30.0129 65.5168 30.0669 65.2108 30.2469 64.9587C33.0736 61.0698 34.7659 57.505 34.7659 55.3985V45.3522C34.7659 45.0462 34.7119 44.8481 34.6939 44.8121C34.6939 44.7941 34.6759 44.7761 34.6759 44.7581C34.4059 43.7859 33.5237 43.1197 32.5334 43.1197C32.0653 43.1197 31.5972 43.2818 31.2191 43.5698C30.9851 43.7499 30.697 43.8039 30.4089 43.7139C30.1209 43.6238 29.9228 43.4258 29.8148 43.1557C29.5087 42.2555 28.6625 41.6614 27.7083 41.6614C27.2762 41.6614 26.8441 41.7874 26.4841 42.0395C26.232 42.2195 25.9079 42.2375 25.6199 42.1115C25.3318 41.9855 25.1337 41.7334 25.0977 41.4273C24.9177 40.3471 23.9995 39.5549 22.9012 39.5549C22.4691 39.5549 22.055 39.6809 21.713 39.915C21.4429 40.095 21.0828 40.113 20.7947 39.951C20.5067 39.789 20.3266 39.4829 20.3266 39.1588V31.039C20.3266 29.7247 19.2464 28.0503 18.0941 28.0503C16.9239 28.0503 15.7716 29.7607 15.7716 31.039V47.8728C15.7716 49.1151 15.4115 49.9073 14.7094 50.2314C13.7731 50.6455 12.3508 50.0693 10.8745 48.719C8.53395 46.5585 5.88734 45.4063 3.9609 45.7303C3.00668 45.8203 2.30452 46.2885 1.85442 47.0266Z" fill="#1C252C"/>
</svg>
